<svg width="69" height="74" viewBox="0 0 69 74" fill="none" xmlns="http://www.w3.org/2000/svg">
<path d="M34.1395 37.5917L28.1201 31.5723C27.9639 31.4029 27.7744 31.2677 27.5634 31.1752C27.3524 31.0827 27.1245 31.035 26.8941 31.035C26.6638 31.035 26.4359 31.0827 26.2249 31.1752C26.0139 31.2677 25.8243 31.4029 25.6682 31.5723L23.2899 34.0242C23.1273 34.1767 22.9977 34.3609 22.9092 34.5654C22.8206 34.7699 22.7749 34.9904 22.7749 35.2133C22.7749 35.4362 22.8206 35.6567 22.9092 35.8613C22.9977 36.0658 23.1273 36.25 23.2899 36.4025L31.7979 44.7512C32.1072 45.0732 32.4784 45.3294 32.8892 45.5043C33.3 45.6792 33.742 45.7691 34.1885 45.7687C34.6333 45.7696 35.0735 45.6798 35.4825 45.5049C35.8914 45.3299 36.2603 45.0735 36.5668 44.7512L53.8649 27.3795C54.0377 27.2254 54.1759 27.0366 54.2706 26.8253C54.3652 26.614 54.4142 26.3851 54.4142 26.1536C54.4142 25.9221 54.3652 25.6932 54.2706 25.4819C54.1759 25.2706 54.0377 25.0818 53.8649 24.9277L51.4866 22.5493C51.333 22.3864 51.1478 22.2567 50.9422 22.1679C50.7367 22.0792 50.5152 22.0335 50.2913 22.0335C50.0674 22.0335 49.8459 22.0792 49.6404 22.1679C49.4348 22.2567 49.2496 22.3864 49.096 22.5493L34.1395 37.5917Z" fill="#00ADEF"/>
<path d="M60.9876 41.9437C61.6415 38.4598 61.6415 34.8846 60.9876 31.4006L66.6269 26.6194C67.5457 25.8414 68.1689 24.7711 68.3921 23.5881C68.6153 22.4051 68.4249 21.1812 67.8529 20.1219L65.401 15.8311C64.946 15.0703 64.2984 14.443 63.5235 14.0125C62.7486 13.582 61.8739 13.3636 60.9876 13.3792C60.395 13.3702 59.8081 13.496 59.2712 13.747L52.1608 16.3215C49.5046 13.9963 46.4241 12.2063 43.0888 11.05L41.8628 3.81688C41.6233 2.68422 40.9829 1.67609 40.0595 0.977864C39.136 0.279637 37.9915 -0.0617559 36.8365 0.0164548H31.9327C30.7738 -0.0805387 29.62 0.253686 28.6924 0.955033C27.7648 1.65638 27.1288 2.67547 26.9063 3.81688L25.6804 10.9274C22.2914 12.0467 19.1639 13.8398 16.4858 16.1989L9.25272 13.6244C8.69468 13.4435 8.11957 13.3203 7.53639 13.2567C6.65212 13.252 5.78155 13.4751 5.00855 13.9045C4.23555 14.334 3.58618 14.9553 3.123 15.7085L0.671107 19.9993C0.0703561 21.0515 -0.136199 22.2831 0.0884347 23.4737C0.313069 24.6642 0.954218 25.736 1.89705 26.4968L7.53639 31.278C7.19108 33.0135 7.02674 34.7802 7.04602 36.5496C7.02101 38.3192 7.1854 40.0865 7.53639 41.8212L1.89705 46.6636C0.978307 47.4416 0.355053 48.5119 0.131838 49.695C-0.0913762 50.878 0.0990271 52.1018 0.671107 53.1611L3.123 57.4519C3.57794 58.2127 4.22555 58.84 5.00044 59.2705C5.77534 59.701 6.65008 59.9195 7.53639 59.9038C8.12898 59.9129 8.71587 59.7871 9.25272 59.536L16.3632 56.9616C19.0194 59.2867 22.0998 61.0767 25.4352 62.2331L26.6611 69.5888C26.8654 70.7683 27.4838 71.8361 28.4053 72.6003C29.3267 73.3644 30.4906 73.7746 31.6875 73.757H36.5913C37.8007 73.75 38.9687 73.3154 39.8886 72.5301C40.8084 71.7449 41.4209 70.6595 41.6176 69.4662L42.8436 62.1105C46.3867 60.9122 49.6428 58.992 52.4059 56.4712L59.026 59.0457C59.6259 59.2267 60.2416 59.3499 60.865 59.4135C61.7492 59.4181 62.6198 59.195 63.3928 58.7656C64.1658 58.3361 64.8152 57.7148 65.2784 56.9616L67.6077 52.9159C68.2628 51.9638 68.5263 50.7961 68.3437 49.6549C68.1611 48.5136 67.5464 47.4864 66.6269 46.7862L60.9876 41.9437ZM56.8316 30.4934L51.2536 36.0837V37.04C51.2676 40.7941 50.0371 44.447 47.7544 47.4275C45.4717 50.4079 42.2657 52.5478 38.6376 53.5126C35.0095 54.4773 31.164 54.2124 27.7024 52.7593C24.2409 51.3063 21.3585 48.747 19.5061 45.4817C17.6536 42.2164 16.9356 38.4293 17.4642 34.7125C17.9928 30.9958 19.7383 27.559 22.4278 24.9397C25.1172 22.3204 28.5988 20.6663 32.3282 20.236C36.0576 19.8057 39.8245 20.6235 43.0397 22.5616L46.0433 19.5703C46.5953 19.0109 47.2528 18.5668 47.9778 18.2637C48.7029 17.9606 49.4809 17.8045 50.2667 17.8045C51.0525 17.8045 51.8305 17.9606 52.5555 18.2637C53.2805 18.5668 53.9381 19.0109 54.4901 19.5703L56.9419 22.0222C57.5342 22.6143 57.9961 23.3237 58.298 24.1048C58.5999 24.886 58.7352 25.7216 58.695 26.5581C58.6177 28.0645 57.9479 29.4791 56.8316 30.4934Z" fill="#00ADEF"/>
</svg>
