<svg width="100" height="69" viewBox="0 0 100 69" fill="none" xmlns="http://www.w3.org/2000/svg">
<path d="M79.8391 2.52684C78.7234 2.52684 77.6004 3.00106 77.6004 3.00106C75.302 4.30379 70.8416 7.06844 68.376 6.65731C65.1662 6.12333 57.7752 6.06356 51.5522 7.42001C51.1539 7.15594 50.7543 6.88446 50.36 6.64188C49.1568 5.90555 47.9772 5.28251 46.8057 4.81297C45.6701 4.36024 44.5387 4.04891 43.3557 3.98758V3.98133C41.5758 3.83407 39.8504 3.77274 38.2686 3.77274C35.8734 3.77723 33.8318 3.91219 32.3152 4.15946V4.15789L32.2906 4.15946C32.1717 4.1702 31.5779 4.07039 30.8752 3.81278C29.8027 3.43524 28.4326 2.77547 27.1682 2.1034C25.8947 1.42821 24.7287 0.756332 23.8863 0.302035C23.4744 0.0795745 23.0178 -0.0231603 22.5498 0.00437872C15.4936 0.384848 9.85234 3.13758 6.0082 6.79989C2.17188 10.4747 0.0253906 15.0042 0 19.2757C0 20.5784 0.210938 21.8595 0.677539 23.0624C1.11191 24.1841 1.78613 25.2259 2.67129 26.0973C2.83008 26.2999 2.9752 26.4595 3.13086 26.622C3.50684 27.004 3.95469 27.4106 4.48262 27.8925C6.04902 29.3118 8.29922 31.3448 9.76055 33.18C11.2105 34.9919 12.1449 36.6444 12.9199 38.1173C13.3082 38.8507 13.6541 39.5442 14.0217 40.2056C14.175 40.4804 14.3369 40.7474 14.5064 41.0141L14.2473 41.272C13.3275 42.171 12.8135 43.3739 12.7988 44.6612C12.7857 45.9456 13.2723 47.1638 14.1729 48.0843C15.0873 49.0171 16.3102 49.5327 17.6166 49.5327C18.5326 49.5327 19.408 49.2686 20.1705 48.787C19.6604 49.554 19.3771 50.4503 19.3666 51.3923C19.3527 52.6749 19.8416 53.8917 20.7406 54.8106C21.6535 55.7468 22.8779 56.2591 24.1844 56.2591C25.2123 56.2591 26.1852 55.9247 27.0053 55.3263C25.5123 57.1997 25.5945 59.9308 27.31 61.6876C28.2236 62.6206 29.4451 63.1329 30.7506 63.1329H30.7522C32.0186 63.1329 33.2164 62.645 34.1275 61.752L35.0182 60.8683C34.6453 61.5526 34.4229 62.3106 34.4137 63.1085C34.4006 64.3958 34.8869 65.611 35.7877 66.53C36.7014 67.463 37.9242 67.9784 39.2314 67.9784C40.4971 67.9784 41.6939 67.4905 42.6131 66.5929L43.1732 66.0251C43.4484 66.2507 43.701 66.4563 43.9059 66.619L44.3078 66.9243C44.4422 67.0181 44.5203 67.0854 44.7734 67.2327C45.7922 67.7913 46.7666 68.0337 47.5414 68.2024C47.9281 68.2837 48.2588 68.339 48.5043 68.3727L48.8035 68.411L48.8961 68.4204L48.9322 68.4233L48.9543 68.4278L48.9781 68.4294L49.0104 68.431C49.0395 68.431 49.0258 68.4356 49.1799 68.4388L49.3625 68.431C51.0596 68.3067 52.6658 67.7237 53.9848 66.7157C54.5096 66.3136 54.9691 65.8274 55.3803 65.2964C56.192 65.5602 57.0525 65.7169 57.9481 65.7169C61.6213 65.7138 64.7105 63.3509 65.8629 60.0704C66.4336 60.1931 67.0166 60.2745 67.6211 60.2745C71.2299 60.27 74.2832 57.9929 75.483 54.8046L75.7822 54.8321C80.4375 54.8321 84.2043 51.0624 84.2059 46.4102C84.209 45.1198 84.0295 43.6897 83.5369 42.2046C86.733 39.3813 91.4127 35.0224 92.258 32.655C92.6676 31.5165 93.6481 28.9479 94.3141 28.0165C95.3205 26.9165 97.9565 24.437 97.9565 24.437C103.854 18.9597 96.7352 3.45672 79.8391 2.52684ZM75.7822 49.7782C75.3234 49.7782 74.8924 49.6862 74.4904 49.5206C74.3662 49.4653 74.2342 49.4436 74.1053 49.41L70.5225 45.1479C69.7324 44.2333 68.3482 44.1306 67.434 44.9224C66.5164 45.714 66.415 47.0966 67.2055 48.0141L70.9293 52.4392C70.6484 54.0149 69.2799 55.2177 67.6213 55.2192C66.7713 55.2177 66.0164 54.9124 65.4119 54.386C65.2967 54.2849 65.1586 54.2251 65.0291 54.1452L61.7572 50.245C60.9672 49.3274 59.583 49.2263 58.6678 50.0181C57.7518 50.8112 57.6506 52.1907 58.4414 53.1097L61.2547 56.4837C61.2621 56.5665 61.2461 56.6495 61.26 56.7321C61.2975 56.9362 61.315 57.122 61.315 57.2921C61.3121 59.1532 59.8061 60.6569 57.9481 60.6601C57.365 60.6601 56.8309 60.5128 56.3553 60.2565L52.2248 55.994C51.3434 55.164 49.9563 55.2069 49.1277 56.0847C48.2984 56.9685 48.3406 58.3538 49.2205 59.1841L51.6209 61.8155C51.4498 62.1483 51.2326 62.4507 50.9105 62.7007C50.4648 63.0444 49.8518 63.2776 49.1545 63.3575C48.9504 63.3269 48.6742 63.2808 48.3443 63.2011C47.9424 63.112 47.5227 62.9616 47.2947 62.845C47.2326 62.7989 47.0738 62.6763 46.8445 62.4936C46.6604 62.3478 46.4301 62.1575 46.1801 61.955C46.5377 60.4054 46.1348 58.7114 44.9426 57.4962C44.0297 56.5602 42.8053 56.0479 41.4988 56.0479C40.8469 56.0479 40.216 56.1784 39.6301 56.4284L39.541 56.3534C40.3719 55.4681 40.8477 54.3327 40.8613 53.1112C40.8744 51.8239 40.3863 50.6087 39.4857 49.6897C38.5727 48.7583 37.3482 48.2413 36.0428 48.2413C35.0209 48.2413 34.0527 48.5725 33.2363 49.1649C33.8969 48.3302 34.2805 47.3208 34.292 46.2405C34.3066 44.9546 33.818 43.7395 32.9189 42.8204C32.0051 41.8845 30.7814 41.3706 29.4744 41.3706C28.2084 41.3706 27.0117 41.8585 26.1012 42.7515L25.2887 43.5583C26.2906 41.7433 26.059 39.4188 24.5377 37.8645C23.6232 36.9302 22.3996 36.4161 21.0924 36.4161C20.0506 36.4161 19.0672 36.7614 18.2385 37.3767C17.3625 35.7395 16.1127 33.0206 13.7076 30.021C12.29 28.252 10.56 26.6056 9.1207 25.2798C8.40274 24.6186 7.75684 24.0417 7.2834 23.6028C7.04785 23.3833 6.85527 23.1977 6.7334 23.078L6.6168 22.9522L6.61523 22.9507L6.60977 22.9554L6.29219 22.5839C5.89727 22.2157 5.60313 21.7784 5.39082 21.2339C5.1791 20.6891 5.05566 20.0323 5.05566 19.2761C5.03184 16.7903 6.48867 13.2983 9.49297 10.4643C12.3723 7.73153 16.5984 5.5745 22.1543 5.1202C23.184 5.6909 24.6576 6.52879 26.2211 7.29735C27.1916 7.7745 28.1928 8.22586 29.1887 8.5786C30.1936 8.92528 31.1625 9.20458 32.291 9.21688C32.5695 9.21688 32.8311 9.19383 33.0713 9.15868L33.1088 9.15243C34.1789 8.96981 36.0731 8.82723 38.2688 8.83016C39.7209 8.82723 41.3137 8.88544 42.9391 9.0204L43.0551 9.02645C43.4541 9.03739 44.1207 9.17997 44.9301 9.50672L45.1135 9.5911C38.2934 12.672 28.6272 18.596 25.451 19.6563C21.8238 20.8655 21.5199 25.7048 29.6811 26.6099C37.8445 27.5182 45.0994 22.3751 46.9123 21.4729C48.2143 20.821 56.4834 21.6171 61.0643 22.1175C63.0842 24.112 64.8549 25.9624 66.1451 27.3616L76.2059 39.661L76.2504 39.7116C77.5408 41.2046 78.2404 42.4167 78.6348 43.4554C79.0275 44.494 79.1473 45.3903 79.1504 46.4106C79.1471 48.27 77.6434 49.7753 75.7822 49.7782Z" fill="#00ADEF"/>
</svg>
