<svg width="112" height="75" viewBox="0 0 112 75" fill="none" xmlns="http://www.w3.org/2000/svg">
<path d="M56.3617 24.1994C63.0599 24.1994 68.4614 18.7975 68.4614 12.0997C68.4614 5.40191 63.1027 0 56.3617 0C49.6634 0 44.262 5.40191 44.262 12.0997C44.3047 18.8412 49.7067 24.1994 56.3617 24.1994ZM28.2728 59.2459H6.53635C-0.507259 59.2459 -0.896292 48.4858 6.66603 48.4858H25.5068L36.3102 32.583C39.508 28.2186 43.1381 26.1442 48.2802 26.1442H64.399C69.5416 26.1442 73.1712 28.0457 76.3691 32.583L87.2157 48.4858H106.187C113.792 48.4858 113.317 59.2459 106.446 59.2459H84.7095C82.9809 59.2459 80.9065 58.6407 79.6966 56.7829L71.3994 44.9426L71.3562 74.5871H41.6256L41.5824 44.9426L33.2852 56.7829C32.0753 58.5975 30.0014 59.2459 28.2728 59.2459Z" fill="#00ADEF"/>
<path d="M13.4462 41.26C20.4955 41.26 26.2565 35.537 26.2565 28.4497C26.2565 21.3624 20.5335 15.6394 13.4462 15.6394C6.35891 15.6394 0.673828 21.4003 0.673828 28.4876C0.673828 35.537 6.39685 41.26 13.4462 41.26ZM12.7387 29.5361C10.3891 28.7148 8.92335 27.5274 8.92335 25.4177C8.92335 23.4721 10.2118 21.9433 12.5746 21.4634V19.3537H14.3434V21.3624C15.8086 21.3624 16.8699 21.6654 17.6532 22.0827L16.9329 24.6092C16.3516 24.3692 15.4041 23.9648 14.103 23.9648C12.8018 23.9648 12.0943 24.6092 12.0943 25.2532C12.0943 26.1375 12.9156 26.4785 14.6843 27.1988C17.0975 28.0831 18.2218 29.3085 18.2218 31.3171C18.2218 33.3258 16.9964 34.8546 14.4064 35.4355V37.4442H12.6377V35.4986C11.1089 35.4986 9.56777 35.0941 8.82235 34.6773L9.46676 32.0873C10.2881 32.4917 11.5765 32.9716 12.9412 32.9716C14.4064 32.9716 15.1267 32.3272 15.1267 31.4429C15.1267 30.5585 14.4316 30.1933 12.7387 29.5361Z" fill="#00ADEF"/>
<path d="M107.073 20.7026L108.2 18.9162L105.535 17.2365L104.428 18.9916C103.155 18.3701 101.768 17.9484 100.307 17.7672V16.0915H102.245V12.9417H95.3398V16.0915H97.1571V17.7553C90.6242 18.513 85.5364 24.0786 85.5364 30.8112C85.5364 38.0595 91.4332 43.9563 98.6815 43.9563C105.93 43.9563 111.826 38.0604 111.826 30.8121C111.826 26.7515 109.975 23.1157 107.073 20.7026ZM98.681 40.8096C93.1684 40.8096 88.6835 36.3247 88.6835 30.8121C88.6835 25.2995 93.1684 20.8146 98.681 20.8146C104.194 20.8146 108.679 25.2995 108.679 30.8121C108.679 36.3247 104.194 40.8096 98.681 40.8096ZM106.849 30.7517H98.7317V22.6345C103.206 22.6557 106.801 26.284 106.849 30.7517Z" fill="#00ADEF"/>
</svg>
