<svg width="59" height="75" viewBox="0 0 59 75" fill="none" xmlns="http://www.w3.org/2000/svg">
<path d="M29.3621 38.5594C34.0793 38.5594 45.1701 32.8825 45.1701 19.2796C45.1701 17.3821 45.1239 15.5492 44.9675 13.8174C44.7107 10.4089 44.0127 7.38835 42.2744 5.07326C40.0452 1.92325 36.1443 0 29.3621 0C22.5811 0 18.6806 1.92266 16.4514 5.0715C14.7121 7.38678 14.0135 10.4085 13.7568 13.818C13.6005 15.5496 13.5542 17.3823 13.5542 19.2796C13.5542 32.8825 24.6449 38.5594 29.3621 38.5594ZM23.5026 6.37569C23.8472 5.74471 24.5071 5.35228 25.2247 5.3515C26.0522 5.3515 26.7604 5.86477 27.0506 6.58804H31.6715C31.7689 6.34401 31.9148 6.11993 32.1058 5.92851C32.476 5.557 32.9693 5.35189 33.4937 5.3513C34.2136 5.35111 34.8736 5.74139 35.2191 6.37002C35.2394 6.40678 35.2386 6.45097 35.2171 6.48714C35.196 6.52331 35.1571 6.54541 35.1154 6.54541L33.3629 6.54834C33.332 6.62225 33.2731 6.82737 33.2739 7.3162C33.2747 7.80502 33.3343 8.00994 33.3656 8.08366L35.1182 8.08092C35.1602 8.08111 35.1983 8.10321 35.2198 8.13919C35.2416 8.17516 35.2419 8.21975 35.2222 8.25651C34.8773 8.88709 34.2174 9.27992 33.4998 9.2807L33.497 9.28031C32.6717 9.28031 31.9641 8.76743 31.6739 8.04377H27.0529C26.9555 8.28779 26.81 8.51206 26.619 8.70329C26.2489 9.0748 25.7555 9.28011 25.2307 9.28109C25.2307 9.28089 25.2276 9.28109 25.2276 9.28109C24.5112 9.28109 23.8509 8.89081 23.5052 8.26218C23.4848 8.22542 23.486 8.18083 23.5071 8.14486C23.5281 8.10888 23.5672 8.08639 23.609 8.08639L25.3612 8.08366C25.3921 8.00994 25.4513 7.80483 25.4501 7.316C25.4493 6.82698 25.3897 6.62206 25.3584 6.54834L23.6059 6.55128C23.5642 6.55089 23.5257 6.52899 23.5042 6.49301C23.4833 6.45703 23.4825 6.41284 23.5026 6.37569ZM15.906 16.3302C16.0881 16.7287 16.8618 18.2601 18.0594 18.4036C19.4362 18.5686 21.7213 13.5278 29.3621 13.5157C37.0027 13.528 39.2881 18.5686 40.6648 18.4036C41.8624 18.2599 42.6362 16.7285 42.8182 16.3302C42.8553 17.3063 42.8688 18.2943 42.8688 19.2796C42.8688 25.9288 39.9329 30.0487 37.4698 32.3338C34.3664 35.2132 30.9209 36.2583 29.3621 36.2583C27.8033 36.2583 24.3577 35.2132 21.2544 32.3338C18.7913 30.0487 15.8554 25.9288 15.8554 19.2796C15.8554 18.2943 15.8689 17.3063 15.906 16.3302Z" fill="#00ADEF"/>
<path d="M58.71 58.3323C57.9031 53.3142 56.2417 46.8501 52.909 44.5526C50.6342 42.9842 42.6966 38.7434 39.3071 36.9325L39.2449 36.8995C38.8574 36.6924 38.3842 36.7339 38.0385 37.0053C36.2623 38.3996 34.3167 39.3393 32.2558 39.7981C31.8918 39.8792 31.593 40.1379 31.4606 40.4865L29.362 46.0183L27.2633 40.4865C27.131 40.1379 26.8322 39.879 26.4681 39.7981C24.4072 39.3393 22.4617 38.3996 20.6855 37.0053C20.3398 36.7339 19.8666 36.6922 19.479 36.8995C16.1288 38.6898 8.09169 43.0185 5.8249 44.5459C1.98857 47.1307 0.311307 56.4837 0.0140995 58.3325C-0.0154257 58.5159 0.00158595 58.7034 0.0635694 58.8786C0.175804 59.1952 2.54936 65.3255 17.3833 67.5621C18.6799 69.8285 20.6166 71.7133 22.9325 72.9387C24.9 73.9797 27.1286 74.5299 29.378 74.5299C30.2589 74.5299 31.1407 74.4452 31.9995 74.2782C34.9681 73.7006 37.7096 72.1231 39.7191 69.836C40.3366 69.1332 40.8772 68.3699 41.3367 67.5627C56.174 65.3262 58.5481 59.1952 58.6604 58.8786C58.7226 58.7032 58.7396 58.5155 58.71 58.3323ZM41.1605 61.4039C41.0158 64.0289 39.975 66.5614 38.2397 68.5359C36.5241 70.4886 34.176 71.8482 31.6235 72.3448C30.8824 72.4891 30.13 72.5603 29.3782 72.5603C27.4636 72.5603 25.5538 72.0975 23.8539 71.1978C21.574 69.9914 19.718 68.0375 18.6336 65.6966C17.5065 63.2632 17.2471 60.4638 17.9017 57.8628C18.534 55.3481 20.0123 53.0809 22.0448 51.4732C24.1186 49.8329 26.7178 48.9288 29.3618 48.9288C30.5438 48.9288 31.7246 49.1053 32.8534 49.4553C35.3247 50.2209 37.507 51.8125 39.0038 53.9211C40.5428 56.0893 41.3068 58.7493 41.1605 61.4039Z" fill="#00ADEF"/>
<path d="M31.2156 60.7454C32.3203 60.9641 33.4186 61.2926 34.4487 61.7496C35.4439 62.1911 36.3358 62.8141 37.2612 63.3788C37.3248 63.4181 37.3891 63.4558 37.4534 63.4939C37.7465 62.6311 37.9078 61.7074 37.9078 60.7454C37.9078 59.7833 37.7465 58.8596 37.4534 57.9968C36.5053 58.5626 35.6039 59.2073 34.5989 59.6731C33.5279 60.1699 32.3727 60.5164 31.2156 60.7454Z" fill="#00ADEF"/>
<path d="M37.2613 63.3787C37.056 63.2534 37.3718 63.4466 37.2613 63.3787V63.3787Z" fill="#00ADEF"/>
<path d="M24.2755 61.7495C25.3058 61.2926 26.4037 60.9641 27.5087 60.7453C26.3345 60.513 25.1601 60.1601 24.0753 59.6499C23.0902 59.1863 22.2033 58.5532 21.2708 57.9965C20.9777 58.8594 20.8164 59.7833 20.8164 60.7453C20.8164 61.7073 20.9777 62.6312 21.2708 63.4941C21.335 63.4558 21.3995 63.418 21.4628 63.3787C22.3885 62.814 23.2809 62.1911 24.2755 61.7495Z" fill="#00ADEF"/>
<path d="M21.4628 63.3787C21.3527 63.4466 21.6681 63.2534 21.4628 63.3787V63.3787Z" fill="#00ADEF"/>
<path d="M30.9329 52.3463C30.961 53.4643 31.0836 54.5804 30.9911 55.6985C30.8908 56.9086 30.6155 58.1225 30.2249 59.2708C31.0304 58.3696 31.951 57.5376 32.9531 56.8582C33.885 56.2266 34.9217 55.7847 35.9131 55.2597C34.6654 53.7711 32.9201 52.7156 30.9329 52.3463Z" fill="#00ADEF"/>
<path d="M28.4995 59.2706C28.1086 58.1225 27.8335 56.9086 27.733 55.6983C27.6409 54.5802 27.7635 53.4641 27.7915 52.3461C25.8043 52.7154 24.0592 53.7709 22.8113 55.2593C23.8192 55.7933 24.8732 56.2413 25.8172 56.889C26.8001 57.564 27.7052 58.3825 28.4995 59.2706Z" fill="#00ADEF"/>
<path d="M27.733 65.7923C27.8337 64.5828 28.1074 63.3678 28.4995 62.2202C27.6931 63.121 26.7729 63.9532 25.7708 64.6327C24.8393 65.2644 23.803 65.7063 22.8113 66.2313C24.059 67.7195 25.8043 68.7748 27.7913 69.1441C27.7633 68.0263 27.6409 66.91 27.733 65.7923Z" fill="#00ADEF"/>
<path d="M30.2251 62.2202C30.6171 63.3678 30.8911 64.5826 30.9914 65.7923C31.0839 66.91 30.9615 68.0263 30.9331 69.1443C32.9201 68.775 34.6654 67.7195 35.9131 66.2313C34.9055 65.6973 33.8518 65.2492 32.908 64.6016C31.9243 63.9266 31.0197 63.1081 30.2251 62.2202Z" fill="#00ADEF"/>
</svg>
