<svg width="97" height="61" viewBox="0 0 97 61" fill="none" xmlns="http://www.w3.org/2000/svg">
<path d="M96.6166 8.93683C96.6166 4.00392 94.4199 0 91.7073 0H83.4956V17.8767H91.7073C94.4199 17.8767 96.6166 13.8756 96.6166 8.93683Z" fill="#00ADEF"/>
<path d="M20.3653 0.0322679C18.1097 0.35665 16.2846 3.44951 15.9161 7.44475C13.7341 7.69837 11.7527 8.33808 10.0072 9.29047C8.27939 10.2281 6.78448 11.4694 5.52242 12.9113C3.6267 15.0786 2.25275 17.6969 1.34452 20.5097C0.439303 23.3255 0 26.3389 0 29.3286C0 30.0156 0.023588 30.7055 0.070764 31.3896C0.22418 33.6599 0.689902 36.1485 1.52152 38.637C2.1467 40.5004 2.97511 42.3639 4.04846 44.1152C4.85347 45.4273 5.79095 46.6805 6.876 47.8244C8.50659 49.5405 10.4791 51.0029 12.8085 52.0319C13.7845 52.4654 14.8253 52.8192 15.9221 53.0845C16.3084 57.0296 18.1099 60.0813 20.3389 60.4204C20.2121 60.441 20.0853 60.4559 19.9496 60.4559H28.5975V42.582H19.9524C20.0909 42.582 20.2296 42.5939 20.3653 42.6114C18.1097 42.9358 16.2816 46.0347 15.9161 50.0358C14.8487 49.7262 13.8609 49.3163 12.9498 48.824C11.3164 47.9454 9.90998 46.7984 8.70397 45.4626C6.89657 43.4634 5.5462 41.0428 4.61136 38.5394C3.67671 36.0391 3.16362 33.4561 3.00738 31.1888C2.96605 30.5725 2.94548 29.9503 2.94548 29.3284C2.94548 26.9283 3.26099 24.5106 3.89787 22.252C3.90976 22.2048 3.92448 22.1606 3.9392 22.1135C4.06016 23.1691 4.30774 24.2011 4.69401 25.1799C5.13332 26.2916 5.74962 27.3353 6.55162 28.2699C7.75762 29.6705 9.37633 30.8116 11.3755 31.5811C12.7524 32.112 14.3092 32.4745 16.0517 32.6456C16.6148 36.1042 18.3015 38.6841 20.3389 38.9966C20.2121 39.0172 20.0853 39.0321 19.9496 39.0321H28.5975V21.1554H19.9524C20.0909 21.1554 20.2296 21.1701 20.3653 21.1879C17.9152 21.5417 15.9691 25.1624 15.8511 29.6618C14.7838 29.5261 13.8284 29.311 12.9851 29.028C11.8587 28.6536 10.9211 28.1669 10.1427 27.598C9.5588 27.1704 9.06346 26.6958 8.64472 26.1768C8.01671 25.4043 7.55382 24.5315 7.24718 23.5763C6.94053 22.6211 6.78712 21.5743 6.78712 20.4774C6.7841 18.7644 7.57137 16.1225 8.30562 14.2619C9.46143 13.0825 10.7854 12.1154 12.3126 11.4313C13.4065 10.9477 14.6006 10.5969 15.9157 10.417C16.2784 14.4064 18.0946 17.4993 20.3385 17.8414C20.2117 17.862 20.0849 17.8769 19.9492 17.8769H28.5972V0H19.9521C20.0911 0 20.2296 0.0147185 20.3653 0.0322679Z" fill="#00ADEF"/>
<path d="M91.7073 42.5822H83.4956V60.4561H91.7073C94.4199 60.4561 96.6166 56.455 96.6166 51.5162C96.6166 46.5803 94.4199 42.5822 91.7073 42.5822Z" fill="#00ADEF"/>
<path d="M91.7073 21.1554H83.4956V39.0321H91.7073C94.4199 39.0321 96.6166 35.031 96.6166 30.0953C96.6166 25.1565 94.4199 21.1554 91.7073 21.1554Z" fill="#00ADEF"/>
<path d="M70.3573 10.4642C70.2746 10.4051 70.1921 10.3521 70.1036 10.2932V0H41.9867V11.045C39.7134 12.7198 37.7379 14.7689 36.1546 17.113C34.8248 19.0797 33.7753 21.2468 33.0527 23.5644C32.3304 25.8791 31.9441 28.3469 31.9441 30.8914C31.9441 34.2851 32.634 37.5315 33.8842 40.48C35.6238 44.5962 38.4425 48.1284 41.9867 50.7378V60.4561H70.1036V51.4868C72.834 49.6911 75.1809 47.3706 77.0091 44.6668C78.3358 42.7032 79.3884 40.5331 80.111 38.2154C80.8305 35.9008 81.2196 33.4359 81.2196 30.8912C81.2196 27.4976 80.5297 24.2483 79.2796 21.2998C77.4101 16.8741 74.2906 13.1208 70.3573 10.4642ZM73.8571 38.186C72.433 41.5473 70.0565 44.4132 67.0608 46.4359C65.5628 47.4472 63.9177 48.2463 62.1575 48.7917C60.3973 49.3401 58.528 49.635 56.5819 49.6378C53.9872 49.6348 51.5282 49.11 49.2873 48.1635C45.9259 46.7424 43.0601 44.3628 41.0374 41.3701C40.0261 39.8722 39.2269 38.2241 38.6786 36.4669C38.133 34.7066 37.8352 32.8373 37.8352 30.8912C37.8352 28.2965 38.36 25.8345 39.3096 23.5967C40.7307 20.2353 43.1103 17.3664 46.1029 15.3439C47.6009 14.3326 49.249 13.5335 51.0062 12.9881C52.7664 12.4397 54.6329 12.1448 56.5819 12.1448C59.1765 12.1448 61.6355 12.6696 63.8764 13.6161C67.2378 15.0373 70.1036 17.4196 72.1264 20.4125C73.1406 21.9074 73.9368 23.5555 74.4852 25.3158C75.0307 27.0732 75.3285 28.9425 75.3285 30.8914C75.3285 33.4861 74.8035 35.9451 73.8571 38.186Z" fill="#00ADEF"/>
<path d="M66.1292 29.0044H58.8436C58.3041 28.3556 57.4932 27.9459 56.5821 27.9459C56.5114 27.9459 56.4436 27.949 56.3757 27.9518L49.2668 20.8459C48.6417 20.2179 47.6246 20.2179 46.9965 20.8459L46.8048 21.0346C46.1796 21.6627 46.1796 22.6828 46.8048 23.311L53.7161 30.2164C53.6631 30.4346 53.6365 30.6587 53.6365 30.8916C53.6365 32.5192 54.9574 33.8371 56.582 33.8371C57.6198 33.8371 58.5339 33.2976 59.0587 32.4867H66.1292C67.0167 32.4867 67.7363 31.7672 67.7363 30.8769V30.6116C67.7361 29.7237 67.0167 29.0044 66.1292 29.0044Z" fill="#00ADEF"/>
</svg>
