<svg width="60" height="60" viewBox="0 0 60 60" fill="none" xmlns="http://www.w3.org/2000/svg">
<g clip-path="url(#clip0_334_862)">
<path fill-rule="evenodd" clip-rule="evenodd" d="M30 16.875C26.8931 16.875 24.375 19.3931 24.375 22.5C24.375 25.6069 26.8931 28.125 30 28.125C33.1069 28.125 35.625 25.6069 35.625 22.5C35.625 19.3931 33.1069 16.875 30 16.875ZM30 31.875C24.8231 31.875 20.625 27.6788 20.625 22.5C20.625 17.3212 24.8231 13.125 30 13.125C35.1769 13.125 39.375 17.3212 39.375 22.5C39.375 27.6788 35.1769 31.875 30 31.875ZM30 0C17.5744 0 7.5 10.0744 7.5 22.5C7.5 31.9088 26.2594 60.0206 30 60C33.6825 60.0206 52.5 31.7812 52.5 22.5C52.5 10.0744 42.4256 0 30 0Z" fill="#006EB3"/>
</g>
<defs>
<clipPath id="clip0_334_862">
<rect width="60" height="60" fill="white"/>
</clipPath>
</defs>
</svg>
