<svg width="60" height="54" viewBox="0 0 60 54" fill="none" xmlns="http://www.w3.org/2000/svg">
<path d="M29.9997 15.5027C34.2738 15.5027 37.751 12.0254 37.751 7.75137C37.751 3.47731 34.2737 0 29.9997 0C25.7255 0 22.2483 3.47731 22.2483 7.75137C22.2483 12.0253 25.7255 15.5027 29.9997 15.5027ZM29.9997 3.74191C32.2103 3.74191 34.0089 5.54039 34.0089 7.75113C34.0089 9.96188 32.2104 11.7604 29.9997 11.7604C27.7889 11.7604 25.9904 9.96188 25.9904 7.75113C25.9904 5.54051 27.789 3.74191 29.9997 3.74191Z" fill="#00ADEF"/>
<path d="M17.4993 34.1728H42.5002C43.5336 34.1728 44.3713 33.3351 44.3713 32.3017C44.3713 24.3771 37.9243 17.9302 29.9998 17.9302C22.0754 17.9302 15.6282 24.3771 15.6282 32.3017C15.6282 33.3351 16.4659 34.1728 17.4993 34.1728ZM40.4641 30.4306H19.5353C21.6079 18.8066 38.3936 18.8183 40.4641 30.4306Z" fill="#00ADEF"/>
<path d="M37.5514 41.3549L33.493 40.7651L31.678 37.0876C30.993 35.6998 29.0075 35.6988 28.3222 37.0876L26.5072 40.7651L22.4488 41.3549C20.9172 41.5774 20.3029 43.4656 21.4118 44.5465L24.3484 47.409L23.6551 51.4511C23.3934 52.9764 24.9993 54.1443 26.37 53.4236L30 51.5153L33.63 53.4236C34.9923 54.1398 36.6083 52.9868 36.3449 51.4511L35.6516 47.409L38.5882 44.5465C39.6966 43.4661 39.0839 41.5777 37.5514 41.3549ZM32.0157 48.3469C29.8472 47.207 30.0197 47.2771 27.9847 48.3469C28.3748 46.0726 28.4982 46.2279 26.739 44.5131C29.0236 44.1811 28.9129 44.3467 30.0002 42.1437C31.0843 44.3404 30.9738 44.1808 33.2614 44.5131C31.5072 46.2229 31.6249 46.0685 32.0157 48.3469Z" fill="#00ADEF"/>
<path d="M16.7051 41.3549L12.6467 40.7651L10.8317 37.0876C10.1467 35.6998 8.1612 35.6988 7.47589 37.0876L5.66101 40.7651L1.60257 41.3549C0.0710437 41.5774 -0.543253 43.4656 0.565575 44.5464L3.50229 47.4089L2.80901 51.4509C2.54733 52.9763 4.15327 54.1441 5.5239 53.4234L9.1539 51.515L12.7839 53.4234C14.1461 54.1397 15.7622 52.9867 15.4988 51.4509L14.8055 47.4089L17.7421 44.5464C18.8503 43.4661 18.2376 41.5777 16.7051 41.3549ZM11.1694 48.3469C9.05147 47.2335 9.25632 47.2335 7.13839 48.3469C7.52862 46.0725 7.6519 46.228 5.89268 44.5131C8.17714 44.1811 8.06663 44.3468 9.1539 42.1437C10.238 44.3404 10.1275 44.1806 12.4151 44.5131C10.7628 46.1237 10.754 45.9256 11.1694 48.3469Z" fill="#00ADEF"/>
<path d="M58.3975 41.3549L54.339 40.7651L52.5242 37.0876C51.8392 35.6998 49.8537 35.6988 49.1684 37.0876L47.3534 40.7651L43.2949 41.3549C41.7634 41.5774 41.1491 43.4656 42.258 44.5465L45.1948 47.409L44.5015 51.4511C44.2398 52.9764 45.8457 54.1441 47.2164 53.4236L50.8464 51.5152L54.4764 53.4236C55.8387 54.1398 57.4547 52.9868 57.1913 51.4511L56.498 47.409L59.4346 44.5465C60.5426 43.4661 59.9299 41.5777 58.3975 41.3549ZM52.8619 48.3469C50.6931 47.2068 50.8764 47.2715 48.8309 48.3469C49.221 46.0726 49.3444 46.2279 47.5852 44.5131C50.0093 44.1608 49.8235 44.2166 50.8464 42.1437C51.9304 44.3404 51.8199 44.1806 54.1076 44.5131C52.3533 46.223 52.4711 46.0686 52.8619 48.3469Z" fill="#00ADEF"/>
</svg>
