<svg width="48" height="48" viewBox="0 0 48 48" fill="none" xmlns="http://www.w3.org/2000/svg">
<path fill-rule="evenodd" clip-rule="evenodd" d="M47.9897 0C46.9221 14.5384 43.1335 25.0624 36.6237 31.5722C35.4692 32.7266 34.2051 33.782 32.8314 34.7383L32.8314 40.4007L25.2541 47.978L20.6302 39.8864L8.11306 27.368L0 22.732L7.57732 15.1546L13.2697 15.1547C14.2174 13.7797 15.2667 12.5168 16.4175 11.366C22.9273 4.85624 33.4513 1.06758 47.9897 0ZM42.3067 5.68046L41.2258 5.84438C31.5322 7.36984 24.4799 10.4475 19.9895 14.938C17.2863 17.6412 15.2301 21.1611 13.8376 25.5594L13.7453 25.8563L22.2091 34.3202L22.6278 34.1886C26.5835 32.8605 29.8328 30.9969 32.419 28.6083L33.0517 28.0002C37.5422 23.5097 40.6198 16.4575 42.1453 6.76392L42.3067 5.68046ZM8.9969 31.892L3.63893 37.25L0.0669424 33.678L5.42492 28.32L8.9969 31.892ZM14.3549 37.25L5.42492 46.1799L1.85293 42.6079L10.7829 33.678L14.3549 37.25ZM16.1409 39.036L19.7128 42.6079L14.3549 47.9659L10.7829 44.3939L16.1409 39.036ZM29.0464 15.1546C31.1388 15.1546 32.8351 16.8509 32.8351 18.9433C32.8351 21.0357 31.1388 22.732 29.0464 22.732C26.954 22.732 25.2577 21.0357 25.2577 18.9433C25.2577 16.8509 26.954 15.1546 29.0464 15.1546Z" fill="#00ADEF"/>
</svg>
