<?xml version="1.0" encoding="UTF-8"?>
<svg xmlns="http://www.w3.org/2000/svg" xmlns:xlink="http://www.w3.org/1999/xlink" viewBox="0 0 251 199.83">
  <defs>
    <style>
      .cls-1 {
        filter: url(#drop-shadow-7);
      }

      .cls-2 {
        fill: url(#Degradado_sin_nombre_152-2);
        filter: url(#drop-shadow-4);
      }

      .cls-3, .cls-4, .cls-5 {
        fill: #fff;
      }

      .cls-6 {
        fill: url(#Degradado_sin_nombre_157);
      }

      .cls-7 {
        fill: url(#Degradado_sin_nombre_155);
      }

      .cls-8 {
        fill: url(#Degradado_sin_nombre_153);
        filter: url(#drop-shadow-1);
      }

      .cls-9 {
        fill: #ffc700;
      }

      .cls-10 {
        isolation: isolate;
      }

      .cls-11 {
        fill: #1e9aff;
      }

      .cls-12, .cls-13 {
        fill: #48a1e0;
      }

      .cls-14 {
        fill: #ebebf2;
      }

      .cls-15 {
        fill: #4b4ba0;
      }

      .cls-16 {
        fill: #3d3d89;
      }

      .cls-17 {
        fill: url(#Degradado_sin_nombre_152-3);
        filter: url(#drop-shadow-6);
      }

      .cls-18 {
        fill: url(#Degradado_sin_nombre_169);
      }

      .cls-4 {
        filter: url(#drop-shadow-5);
      }

      .cls-19 {
        fill: url(#Degradado_sin_nombre_154-2);
      }

      .cls-20 {
        fill: #a7c8ff;
      }

      .cls-20, .cls-21 {
        mix-blend-mode: multiply;
      }

      .cls-22 {
        filter: url(#drop-shadow-2);
      }

      .cls-23 {
        fill: url(#Degradado_sin_nombre_152);
        filter: url(#drop-shadow-3);
      }

      .cls-21 {
        fill: url(#Degradado_sin_nombre_156);
      }

      .cls-13 {
        filter: url(#drop-shadow-10);
      }

      .cls-5 {
        opacity: .15;
      }

      .cls-24 {
        filter: url(#drop-shadow-9);
      }

      .cls-25 {
        fill: url(#Degradado_sin_nombre_152-4);
        filter: url(#drop-shadow-8);
      }

      .cls-26 {
        fill: url(#Degradado_sin_nombre_154);
      }
    </style>
    <linearGradient id="Degradado_sin_nombre_157" data-name="Degradado sin nombre 157" x1="106.39" y1="156.08" x2="140.28" y2="189.97" gradientUnits="userSpaceOnUse">
      <stop offset=".23" stop-color="#a7c8ff"/>
      <stop offset=".45" stop-color="#aacaff"/>
      <stop offset=".67" stop-color="#b6d2ff"/>
      <stop offset=".89" stop-color="#cae0ff"/>
      <stop offset="1" stop-color="#d8e9ff"/>
    </linearGradient>
    <linearGradient id="Degradado_sin_nombre_155" data-name="Degradado sin nombre 155" x1="62.05" y1="57.96" x2="184.61" y2="180.53" gradientUnits="userSpaceOnUse">
      <stop offset="0" stop-color="#d8e9ff"/>
      <stop offset="1" stop-color="#a7c8ff"/>
    </linearGradient>
    <linearGradient id="Degradado_sin_nombre_154" data-name="Degradado sin nombre 154" x1="66.57" y1="43.7" x2="180.38" y2="157.51" gradientUnits="userSpaceOnUse">
      <stop offset="0" stop-color="#562bff"/>
      <stop offset="1" stop-color="#7da5ff"/>
    </linearGradient>
    <linearGradient id="Degradado_sin_nombre_156" data-name="Degradado sin nombre 156" x1="119.96" y1="153.87" x2="126.71" y2="160.63" gradientUnits="userSpaceOnUse">
      <stop offset="0" stop-color="#a7c8ff"/>
      <stop offset="1" stop-color="#d8e9ff"/>
    </linearGradient>
    <linearGradient id="Degradado_sin_nombre_169" data-name="Degradado sin nombre 169" x1="103.38" y1="160.38" x2="143.29" y2="200.29" gradientUnits="userSpaceOnUse">
      <stop offset="0" stop-color="#a7c8ff"/>
      <stop offset="1" stop-color="#73abff"/>
    </linearGradient>
    <linearGradient id="Degradado_sin_nombre_154-2" data-name="Degradado sin nombre 154" x1="168.58" y1="124.63" x2="225.46" y2="181.5" xlink:href="#Degradado_sin_nombre_154"/>
    <linearGradient id="Degradado_sin_nombre_153" data-name="Degradado sin nombre 153" x1="183.05" y1="139.25" x2="210.99" y2="167.19" gradientUnits="userSpaceOnUse">
      <stop offset="0" stop-color="#35ffff" stop-opacity=".5"/>
      <stop offset="1" stop-color="#35e6bb"/>
    </linearGradient>
    <filter id="drop-shadow-1" filterUnits="userSpaceOnUse">
      <feOffset dx="0" dy="8.89"/>
      <feGaussianBlur result="blur" stdDeviation="5.33"/>
      <feFlood flood-color="#1172d5" flood-opacity=".4"/>
      <feComposite in2="blur" operator="in"/>
      <feComposite in="SourceGraphic"/>
    </filter>
    <filter id="drop-shadow-2" filterUnits="userSpaceOnUse">
      <feOffset dx="0" dy="3.75"/>
      <feGaussianBlur result="blur-2" stdDeviation="3.75"/>
      <feFlood flood-color="#1e85ff" flood-opacity=".4"/>
      <feComposite in2="blur-2" operator="in"/>
      <feComposite in="SourceGraphic"/>
    </filter>
    <linearGradient id="Degradado_sin_nombre_152" data-name="Degradado sin nombre 152" x1="79.12" y1="39.12" x2="156.77" y2="116.78" gradientUnits="userSpaceOnUse">
      <stop offset="0" stop-color="#35c9e2" stop-opacity=".5"/>
      <stop offset="1" stop-color="#35e6bb"/>
    </linearGradient>
    <filter id="drop-shadow-3" filterUnits="userSpaceOnUse">
      <feOffset dx="0" dy="8.89"/>
      <feGaussianBlur result="blur-3" stdDeviation="5.33"/>
      <feFlood flood-color="#1e85ff" flood-opacity=".4"/>
      <feComposite in2="blur-3" operator="in"/>
      <feComposite in="SourceGraphic"/>
    </filter>
    <linearGradient id="Degradado_sin_nombre_152-2" data-name="Degradado sin nombre 152" x1="19.46" y1="73.64" x2="53.65" y2="107.83" xlink:href="#Degradado_sin_nombre_152"/>
    <filter id="drop-shadow-4" filterUnits="userSpaceOnUse">
      <feOffset dx="0" dy="8.89"/>
      <feGaussianBlur result="blur-4" stdDeviation="5.33"/>
      <feFlood flood-color="#1e85ff" flood-opacity=".4"/>
      <feComposite in2="blur-4" operator="in"/>
      <feComposite in="SourceGraphic"/>
    </filter>
    <filter id="drop-shadow-5" filterUnits="userSpaceOnUse">
      <feOffset dx="0" dy="3.75"/>
      <feGaussianBlur result="blur-5" stdDeviation="3.75"/>
      <feFlood flood-color="#1e85ff" flood-opacity=".4"/>
      <feComposite in2="blur-5" operator="in"/>
      <feComposite in="SourceGraphic"/>
    </filter>
    <linearGradient id="Degradado_sin_nombre_152-3" data-name="Degradado sin nombre 152" x1="58.57" y1="118.17" x2="95.32" y2="154.92" xlink:href="#Degradado_sin_nombre_152"/>
    <filter id="drop-shadow-6" filterUnits="userSpaceOnUse">
      <feOffset dx="0" dy="8.89"/>
      <feGaussianBlur result="blur-6" stdDeviation="5.33"/>
      <feFlood flood-color="#1e85ff" flood-opacity=".4"/>
      <feComposite in2="blur-6" operator="in"/>
      <feComposite in="SourceGraphic"/>
    </filter>
    <filter id="drop-shadow-7" filterUnits="userSpaceOnUse">
      <feOffset dx="0" dy="3.75"/>
      <feGaussianBlur result="blur-7" stdDeviation="3.75"/>
      <feFlood flood-color="#1e85ff" flood-opacity=".4"/>
      <feComposite in2="blur-7" operator="in"/>
      <feComposite in="SourceGraphic"/>
    </filter>
    <linearGradient id="Degradado_sin_nombre_152-4" data-name="Degradado sin nombre 152" x1="182.31" y1="27.74" x2="231.84" y2="77.27" xlink:href="#Degradado_sin_nombre_152"/>
    <filter id="drop-shadow-8" filterUnits="userSpaceOnUse">
      <feOffset dx="0" dy="8.89"/>
      <feGaussianBlur result="blur-8" stdDeviation="5.33"/>
      <feFlood flood-color="#1e85ff" flood-opacity=".4"/>
      <feComposite in2="blur-8" operator="in"/>
      <feComposite in="SourceGraphic"/>
    </filter>
    <filter id="drop-shadow-9" filterUnits="userSpaceOnUse">
      <feOffset dx="0" dy="3.75"/>
      <feGaussianBlur result="blur-9" stdDeviation="3.75"/>
      <feFlood flood-color="#1e85ff" flood-opacity=".4"/>
      <feComposite in2="blur-9" operator="in"/>
      <feComposite in="SourceGraphic"/>
    </filter>
    <filter id="drop-shadow-10" filterUnits="userSpaceOnUse">
      <feOffset dx="0" dy="8.89"/>
      <feGaussianBlur result="blur-10" stdDeviation="5.33"/>
      <feFlood flood-color="#1e85ff" flood-opacity=".4"/>
      <feComposite in2="blur-10" operator="in"/>
      <feComposite in="SourceGraphic"/>
    </filter>
  </defs>
  <g class="cls-10">
    <g id="OBJECTS">
      <g>
        <g>
          <path class="cls-12" d="m203.55,35.85c0-1.84-.19-3.64-.54-5.38l9.01-5.2-8.44-14.61-8.98,5.18c-2.72-2.43-5.93-4.32-9.48-5.49V0h-16.87v10.35c-1.58.52-3.09,1.18-4.52,1.97-.17.09-.34.19-.51.29-.17.1-.34.19-.5.29-1.4.84-2.73,1.82-3.97,2.93l-8.96-5.17-8.44,14.61,8.96,5.17c-.34,1.62-.52,3.26-.55,4.9,0,.2,0,.4,0,.59,0,.19,0,.38,0,.57.03,1.63.22,3.27.55,4.9l-8.96,5.17,8.44,14.61,8.96-5.17c2.79,2.48,6.03,4.33,9.49,5.46v10.37h16.87v-10.4c1.68-.56,3.34-1.3,4.93-2.22,1.64-.94,3.13-2.04,4.49-3.25l9.03,5.22,8.44-14.61-9.03-5.22c.37-1.78.57-3.62.57-5.51Zm-15.81,11.89c-.07.07-.15.13-.22.2-.29.26-.59.51-.9.75-.14.11-.29.22-.44.33-.25.18-.51.36-.77.52-.21.13-.42.26-.63.39-.21.12-.43.24-.65.36-.28.14-.56.28-.84.4-.17.07-.33.15-.5.22-.36.15-.73.28-1.1.4-.09.03-.19.06-.28.09-1.49.45-3.07.7-4.71.7-8.97,0-16.25-7.27-16.25-16.25,0-2.2.44-4.29,1.23-6.2.04-.09.08-.18.11-.27.15-.34.31-.66.48-.99.11-.2.22-.41.33-.61.12-.2.24-.4.36-.59.2-.31.4-.61.62-.91.06-.08.12-.16.17-.23,1.26-1.64,2.85-3.07,4.76-4.17,7.77-4.49,17.71-1.82,22.2,5.95.82,1.42,1.4,2.91,1.75,4.43.02.1.04.19.06.29.08.38.15.77.2,1.16.02.18.05.36.06.54.03.31.06.62.07.93.01.25.02.49.02.74,0,.25,0,.5-.02.74-.01.31-.04.62-.07.93-.02.18-.04.36-.06.55-.05.38-.12.77-.2,1.15-.02.1-.04.2-.06.29-.35,1.52-.93,3.01-1.75,4.43-.82,1.42-1.82,2.66-2.96,3.73Z"/>
          <path class="cls-12" d="m243.63,87.23c0-1.04-.11-2.05-.3-3.04l5.08-2.93-4.76-8.24-5.06,2.92c-1.53-1.37-3.35-2.44-5.34-3.1v-5.83h-9.51v5.83c-.89.29-1.74.67-2.55,1.11-.1.05-.19.11-.29.16-.09.06-.19.11-.28.16-.79.48-1.54,1.03-2.24,1.65l-5.05-2.92-4.76,8.24,5.05,2.92c-.19.92-.29,1.84-.31,2.76,0,.11,0,.22,0,.33,0,.11,0,.22,0,.32.02.92.12,1.85.31,2.76l-5.05,2.92,4.76,8.24,5.05-2.92c1.57,1.4,3.4,2.44,5.35,3.08v5.85h9.51v-5.86c.95-.32,1.88-.73,2.78-1.25.92-.53,1.77-1.15,2.53-1.83l5.09,2.94,4.76-8.24-5.09-2.94c.21-1,.32-2.04.32-3.11Zm-8.92,6.7s-.08.08-.12.11c-.16.15-.33.29-.51.42-.08.06-.16.12-.25.18-.14.1-.29.2-.43.3-.12.08-.24.15-.36.22-.12.07-.24.14-.37.2-.16.08-.31.16-.47.23-.09.04-.19.08-.28.12-.2.08-.41.16-.62.23-.05.02-.11.03-.16.05-.84.25-1.73.39-2.66.39-5.06,0-9.16-4.1-9.16-9.16,0-1.24.25-2.42.69-3.5.02-.05.04-.1.06-.15.08-.19.17-.37.27-.56.06-.12.12-.23.19-.34.06-.11.13-.22.2-.33.11-.17.22-.34.35-.51.03-.04.07-.09.1-.13.71-.92,1.61-1.73,2.68-2.35,4.38-2.53,9.98-1.03,12.51,3.35.46.8.79,1.64.99,2.5.01.05.02.11.04.16.05.22.08.43.11.65.01.1.03.2.04.3.02.18.03.35.04.53,0,.14,0,.28,0,.42,0,.14,0,.28,0,.42,0,.17-.02.35-.04.52-.01.1-.02.21-.04.31-.03.22-.07.43-.11.65-.01.06-.02.11-.04.17-.2.86-.52,1.7-.99,2.5-.46.8-1.03,1.5-1.67,2.1Z"/>
          <path class="cls-12" d="m58.65,143.67c-.52-1.35-1.17-2.61-1.92-3.78l5.11-6.35-10.31-8.3-5.1,6.33c-2.68-1.01-5.56-1.48-8.49-1.33l-2.93-7.57-12.34,4.78,2.93,7.57c-1,.83-1.92,1.74-2.75,2.72-.1.12-.19.24-.29.36-.1.12-.19.24-.29.36-.78,1.01-1.48,2.11-2.07,3.26l-8.02-1.25-2.03,13.07,8.02,1.25c.21,1.28.54,2.53.98,3.74.05.15.11.29.17.43.05.14.11.28.16.42.49,1.19,1.09,2.33,1.79,3.43l-5.09,6.32,10.31,8.3,5.09-6.32c2.74,1.03,5.63,1.46,8.49,1.31l2.94,7.58,12.34-4.78-2.95-7.61c1.07-.89,2.07-1.9,2.98-3.02.93-1.15,1.71-2.38,2.36-3.65l8.08,1.26,2.03-13.07-8.08-1.26c-.23-1.41-.61-2.81-1.15-4.19Zm-8.2,13.17c-.03.07-.07.14-.1.21-.14.27-.29.54-.44.8-.07.12-.15.24-.23.36-.13.21-.27.41-.41.6-.11.16-.23.31-.35.46-.12.15-.25.3-.37.44-.16.18-.33.36-.5.53-.1.1-.2.2-.31.3-.22.21-.45.41-.69.61-.06.05-.12.1-.18.15-.96.75-2.05,1.38-3.25,1.85-6.56,2.54-13.94-.72-16.48-7.28-.62-1.61-.89-3.26-.86-4.88,0-.08,0-.15,0-.23.01-.29.04-.57.07-.86.02-.18.04-.36.07-.54.03-.18.06-.36.1-.54.06-.28.12-.56.19-.84.02-.07.04-.15.06-.22.46-1.56,1.22-3.05,2.3-4.39,4.41-5.48,12.43-6.35,17.92-1.94,1,.81,1.85,1.74,2.53,2.74.04.06.09.13.13.19.17.26.33.52.47.79.07.12.14.25.2.38.11.22.22.44.31.66.08.18.15.36.22.54.07.18.14.36.2.55.08.23.15.46.21.7.04.14.07.28.11.42.07.3.13.6.18.9.01.08.03.15.04.23.17,1.21.17,2.46-.03,3.73-.2,1.27-.58,2.47-1.11,3.57Z"/>
          <g>
            <path class="cls-12" d="m122.96,29.68H7.93c-.81,0-1.47-.66-1.47-1.47h0c0-.81.66-1.47,1.47-1.47h115.03c.81,0,1.47.66,1.47,1.47h0c0,.81-.66,1.47-1.47,1.47Z"/>
            <path class="cls-12" d="m122.96,40.23H7.93c-.81,0-1.47-.66-1.47-1.47h0c0-.81.66-1.47,1.47-1.47h115.03c.81,0,1.47.66,1.47,1.47h0c0,.81-.66,1.47-1.47,1.47Z"/>
            <path class="cls-14" d="m122.96,50.78H7.93c-.81,0-1.47-.66-1.47-1.47h0c0-.81.66-1.47,1.47-1.47h115.03c.81,0,1.47.66,1.47,1.47h0c0,.81-.66,1.47-1.47,1.47Z"/>
            <rect class="cls-14" x="6.45" y="58.38" width="117.98" height="2.95" rx="1.47" ry="1.47"/>
            <path class="cls-14" d="m122.96,71.88H7.93c-.81,0-1.47-.66-1.47-1.47h0c0-.81.66-1.47,1.47-1.47h115.03c.81,0,1.47.66,1.47,1.47h0c0,.81-.66,1.47-1.47,1.47Z"/>
            <path class="cls-14" d="m122.96,82.42H7.93c-.81,0-1.47-.66-1.47-1.47h0c0-.81.66-1.47,1.47-1.47h115.03c.81,0,1.47.66,1.47,1.47h0c0,.81-.66,1.47-1.47,1.47Z"/>
            <path class="cls-14" d="m122.96,92.97H7.93c-.81,0-1.47-.66-1.47-1.47h0c0-.81.66-1.47,1.47-1.47h115.03c.81,0,1.47.66,1.47,1.47h0c0,.81-.66,1.47-1.47,1.47Z"/>
            <path class="cls-14" d="m122.96,103.52H7.93c-.81,0-1.47-.66-1.47-1.47h0c0-.81.66-1.47,1.47-1.47h115.03c.81,0,1.47.66,1.47,1.47h0c0,.81-.66,1.47-1.47,1.47Z"/>
            <path class="cls-14" d="m122.96,114.07H7.93c-.81,0-1.47-.66-1.47-1.47h0c0-.81.66-1.47,1.47-1.47h115.03c.81,0,1.47.66,1.47,1.47h0c0,.81-.66,1.47-1.47,1.47Z"/>
          </g>
        </g>
        <g>
          <ellipse class="cls-12" cx="123.33" cy="180.87" rx="88.33" ry="8.34"/>
          <g>
            <polygon class="cls-6" points="148.93 181.31 97.74 181.31 106.54 155.93 140.13 155.93 148.93 181.31"/>
            <g>
              <path class="cls-7" d="m41.31,78.71h164.05v74.74c0,8.45-6.86,15.3-15.3,15.3H56.61c-8.45,0-15.3-6.86-15.3-15.3v-74.74h0Z"/>
              <path class="cls-16" d="m56.61,53.47h133.44c8.45,0,15.3,6.86,15.3,15.3v79.14H41.31v-79.14c0-8.45,6.86-15.3,15.3-15.3Z"/>
              <rect class="cls-26" x="47.9" y="62.36" width="151.15" height="76.49"/>
            </g>
            <circle class="cls-21" cx="123.33" cy="157.25" r="4.78"/>
            <path class="cls-18" d="m162.27,181.31h-77.87c0-2.61,2.12-4.73,4.73-4.73h68.4c2.61,0,4.73,2.12,4.73,4.73h0Z"/>
          </g>
        </g>
        <g>
          <ellipse class="cls-12" cx="197.02" cy="194.71" rx="35.79" ry="5.12"/>
          <g>
            <g>
              <rect class="cls-15" x="174" y="113.71" width="46.04" height="79.02" rx="8.89" ry="8.89"/>
              <rect class="cls-19" x="174" y="119.21" width="46.04" height="67.7"/>
              <rect class="cls-8" x="180.44" y="136.64" width="33.15" height="33.15" rx="8.89" ry="8.89"/>
              <g class="cls-22">
                <path class="cls-3" d="m197.02,165.91c-7,0-12.69-5.69-12.69-12.69s5.69-12.69,12.69-12.69,12.69,5.69,12.69,12.69-5.69,12.69-12.69,12.69Zm0-23.04c-5.7,0-10.35,4.64-10.35,10.35s4.64,10.35,10.35,10.35,10.35-4.64,10.35-10.35-4.64-10.35-10.35-10.35Z"/>
                <polygon class="cls-3" points="196.1 158.04 191.67 154.14 193.53 152.03 195.84 154.07 200.26 149.02 202.37 150.87 196.1 158.04"/>
              </g>
            </g>
            <path class="cls-15" d="m202.79,121.89h-11.54c-1.78,0-3.22-1.44-3.22-3.22h17.99c0,1.78-1.44,3.22-3.22,3.22Z"/>
            <path class="cls-5" d="m201.18,119.21h-8.33c-.3,0-.54-.24-.54-.54h0c0-.3.24-.54.54-.54h8.33c.3,0,.54.24.54.54h0c0,.3-.24.54-.54.54Z"/>
          </g>
        </g>
        <g>
          <g>
            <rect class="cls-23" x="67.57" y="45.47" width="100.76" height="64.96" rx="8.89" ry="8.89"/>
            <rect class="cls-16" x="72.68" y="50.58" width="90.53" height="54.74"/>
            <g>
              <rect class="cls-9" x="82.33" y="57.9" width="9.42" height="1.27"/>
              <rect class="cls-9" x="94.73" y="57.9" width="19.27" height="1.27"/>
              <rect class="cls-3" x="86.33" y="63.05" width="9.42" height="1.27"/>
              <rect class="cls-11" x="98.73" y="63.05" width="55.06" height="1.27"/>
              <rect class="cls-3" x="86.33" y="67.83" width="9.42" height="1.27"/>
              <rect class="cls-11" x="98.73" y="67.83" width="55.06" height="1.27"/>
              <rect class="cls-3" x="86.33" y="72.62" width="9.42" height="1.27"/>
              <rect class="cls-11" x="98.73" y="72.62" width="55.06" height="1.27"/>
              <rect class="cls-3" x="86.33" y="77.4" width="9.42" height="1.27"/>
              <rect class="cls-9" x="82.33" y="82.46" width="9.42" height="1.27"/>
              <rect class="cls-9" x="94.73" y="82.46" width="19.27" height="1.27"/>
              <rect class="cls-3" x="98.73" y="87.62" width="35.51" height="1.27"/>
              <rect class="cls-3" x="98.73" y="92.4" width="35.51" height="1.27"/>
              <rect class="cls-11" x="92.62" y="92.4" width="3.13" height="1.27"/>
              <rect class="cls-11" x="86.33" y="97.19" width="9.42" height="1.27"/>
              <rect class="cls-3" x="98.73" y="97.19" width="35.51" height="1.27"/>
              <rect class="cls-3" x="136.79" y="87.62" width="17.4" height="1.27"/>
              <rect class="cls-3" x="136.79" y="92.4" width="17.4" height="1.27"/>
              <rect class="cls-3" x="136.79" y="97.19" width="17.4" height="1.27"/>
              <rect class="cls-11" x="98.73" y="77.4" width="55.06" height="1.27"/>
            </g>
          </g>
          <g>
            <rect class="cls-2" x="16.86" y="71.03" width="39.4" height="39.4" rx="8.89" ry="8.89"/>
            <path class="cls-4" d="m45.63,90.71c0-.62-.06-1.23-.18-1.82l3.04-1.76-2.85-4.94-3.03,1.75c-.92-.82-2.01-1.46-3.2-1.86v-3.5h-5.7v3.5c-.53.18-1.04.4-1.53.67-.06.03-.11.07-.17.1-.06.03-.11.06-.17.1-.47.29-.92.62-1.34.99l-3.03-1.75-2.85,4.94,3.03,1.75c-.11.55-.18,1.1-.19,1.66,0,.07,0,.13,0,.2,0,.06,0,.13,0,.19.01.55.07,1.11.19,1.66l-3.03,1.75,2.85,4.94,3.03-1.75c.94.84,2.04,1.46,3.21,1.85v3.5h5.7v-3.52c.57-.19,1.13-.44,1.67-.75.55-.32,1.06-.69,1.52-1.1l3.05,1.76,2.85-4.94-3.05-1.76c.13-.6.19-1.22.19-1.86Zm-5.34,4.02s-.05.05-.07.07c-.1.09-.2.17-.3.25-.05.04-.1.07-.15.11-.09.06-.17.12-.26.18-.07.04-.14.09-.21.13-.07.04-.15.08-.22.12-.09.05-.19.09-.28.14-.06.03-.11.05-.17.07-.12.05-.25.1-.37.14-.03.01-.06.02-.1.03-.5.15-1.04.24-1.59.24-3.03,0-5.49-2.46-5.49-5.49,0-.74.15-1.45.42-2.1.01-.03.03-.06.04-.09.05-.11.1-.22.16-.33.04-.07.07-.14.11-.21.04-.07.08-.13.12-.2.07-.1.13-.21.21-.31.02-.03.04-.05.06-.08.43-.55.96-1.04,1.61-1.41,2.63-1.52,5.99-.62,7.5,2.01.28.48.47.98.59,1.5,0,.03.01.06.02.1.03.13.05.26.07.39,0,.06.02.12.02.18.01.1.02.21.02.31,0,.08,0,.17,0,.25,0,.08,0,.17,0,.25,0,.1-.01.21-.02.31,0,.06-.01.12-.02.18-.02.13-.04.26-.07.39,0,.03-.01.07-.02.1-.12.51-.31,1.02-.59,1.5-.28.48-.62.9-1,1.26Z"/>
          </g>
          <g>
            <rect class="cls-17" x="52.13" y="119.4" width="49.62" height="34.28" rx="8.89" ry="8.89"/>
            <g class="cls-1">
              <polygon class="cls-3" points="69.77 128.46 60.43 136.55 69.77 144.63 69.77 140.25 65.49 136.55 69.77 132.84 69.77 128.46"/>
              <polygon class="cls-3" points="84.12 144.63 93.46 136.55 84.12 128.46 84.12 132.84 88.4 136.55 84.12 140.25 84.12 144.63"/>
              <polygon class="cls-3" points="76.04 147.27 72.09 147.27 77.85 125.82 81.8 125.82 76.04 147.27"/>
            </g>
          </g>
          <g>
            <rect class="cls-25" x="179.71" y="25.14" width="54.74" height="54.74" rx="8.89" ry="8.89"/>
            <g class="cls-24">
              <path class="cls-3" d="m220.64,42.41c-1.13,0-2.2.25-3.15.7-1.31-4.68-5.61-8.12-10.71-8.12s-9.26,3.32-10.64,7.89c-.81-.31-1.7-.48-2.62-.48-4.09,0-7.41,3.32-7.41,7.41h41.95c0-4.09-3.32-7.41-7.41-7.41Z"/>
              <polygon class="cls-3" points="199.36 62.3 207.08 70.02 214.79 62.3 209.6 62.3 209.6 53.2 204.56 53.2 204.56 62.3 199.36 62.3"/>
            </g>
          </g>
          <g>
            <rect class="cls-13" x="16.86" y="22.66" width="39.4" height="39.4" rx="8.89" ry="8.89"/>
            <rect class="cls-16" x="21.51" y="27.32" width="30.09" height="30.09"/>
            <g>
              <rect class="cls-3" x="26.6" y="33.18" width="2.77" height="1.27"/>
              <rect class="cls-11" x="30.82" y="33.18" width="14.16" height="1.27"/>
              <rect class="cls-3" x="26.6" y="37.45" width="4.3" height="1.27"/>
              <rect class="cls-11" x="32.35" y="37.45" width="14.16" height="1.27"/>
              <rect class="cls-3" x="26.6" y="45.48" width="2.77" height="1.27"/>
              <rect class="cls-11" x="30.82" y="45.48" width="14.16" height="1.27"/>
              <rect class="cls-3" x="26.6" y="49.76" width="4.3" height="1.27"/>
              <rect class="cls-11" x="32.35" y="49.76" width="14.16" height="1.27"/>
              <rect class="cls-3" x="24.04" y="41.72" width="4.3" height="1.27"/>
              <rect class="cls-11" x="29.79" y="41.72" width="19.27" height="1.27"/>
            </g>
          </g>
        </g>
        <g>
          <rect class="cls-20" x="124.4" y="118.33" width="11.54" height="11.54"/>
          <rect class="cls-20" x="141.17" y="118.33" width="11.54" height="11.54"/>
          <rect class="cls-20" x="157.93" y="118.33" width="11.54" height="11.54"/>
          <g>
            <rect class="cls-20" x="175.05" y="86.98" width="17.4" height="1.27"/>
            <rect class="cls-20" x="175.05" y="91.77" width="17.4" height="1.27"/>
            <rect class="cls-20" x="175.05" y="96.55" width="17.4" height="1.27"/>
          </g>
        </g>
      </g>
    </g>
  </g>
</svg>