<svg width="49" height="44" viewBox="0 0 49 44" fill="none" xmlns="http://www.w3.org/2000/svg">
<path d="M24.1627 20.4164C29.2977 20.4164 31.985 12.8009 31.985 8.71806C31.985 3.91115 28.4752 0 24.1627 0C19.8487 0 16.3381 3.91115 16.3381 8.71806C16.3381 12.8001 19.0254 20.4164 24.1627 20.4164ZM24.1627 3.05201C26.7974 3.05201 28.933 5.58823 28.933 8.71806C28.933 11.8464 26.7974 17.3644 24.1627 17.3644C21.5265 17.3644 19.3909 11.8464 19.3909 8.71806C19.3909 5.58823 21.5265 3.05201 24.1627 3.05201Z" fill="#00ADEF"/>
<path d="M32.0209 25.7532C31.4907 25.3733 30.8658 25.2031 30.2401 25.2031C29.6717 25.2031 29.1017 25.374 28.6012 25.693C27.2507 26.5544 25.7163 27.0145 24.162 27.0145C22.6085 27.0145 21.0734 26.5628 19.7229 25.7014C19.2216 25.3824 18.6524 25.2268 18.0832 25.2268C17.4583 25.2268 16.8334 25.4191 16.3031 25.7998C12.3698 28.6252 10.0198 35.5578 10.0198 40.7172C10.0198 42.4027 11.3863 43.6762 13.0718 43.6762H35.2545C36.94 43.6762 38.3066 42.4027 38.3066 40.7172C38.305 35.5578 35.955 28.5786 32.0209 25.7532ZM13.0703 40.6242C13.0703 36.0461 15.064 30.3542 18.0817 28.1872C19.8694 29.3241 21.9447 29.9803 24.1613 29.9803C26.3785 29.9803 28.4547 29.3249 30.2401 28.1872C33.2578 30.3542 35.253 36.0461 35.253 40.6242H13.0703Z" fill="#00ADEF"/>
<path d="M21.2016 31.3218C20.7393 31.1357 20.2837 30.8999 19.8504 30.6237C19.5871 30.4558 19.2483 30.465 18.995 30.6474C16.6572 32.3282 15.6134 34.7859 15.6134 38.6154C15.6134 39.0373 15.9552 39.3784 16.3764 39.3784C16.7983 39.3784 17.1394 39.0373 17.1394 38.6154C17.1394 35.5168 17.849 33.5605 19.494 32.1886C19.8649 32.3969 20.2448 32.5816 20.6309 32.7372C21.0231 32.8936 21.4672 32.7059 21.6243 32.3145C21.7815 31.9231 21.5931 31.4798 21.2016 31.3218Z" fill="#00ADEF"/>
<path d="M24.1612 31.8972C23.9056 31.8972 23.6531 31.8835 23.4028 31.8606C22.9831 31.8194 22.6116 32.1307 22.5726 32.5503C22.5337 32.97 22.8427 33.3416 23.2624 33.3805C23.5592 33.408 23.8583 33.4232 24.1612 33.4232C24.5824 33.4232 24.9242 33.0822 24.9242 32.6602C24.9242 32.2383 24.5824 31.8972 24.1612 31.8972Z" fill="#00ADEF"/>
<path d="M41.7622 26.3028C41.3273 26.051 40.7527 26.0472 40.298 26.2616C40.0989 26.3554 39.3488 26.5477 38.946 26.6507C38.437 26.7835 37.9968 26.8895 37.6878 27.007C36.8988 27.3046 36.5005 28.1714 36.7973 28.9603C37.0934 29.7485 37.9724 30.1224 38.7628 29.8286C38.9185 29.7698 39.3565 29.6089 39.709 29.5196C40.1202 29.412 40.4742 29.2251 40.7787 29.1358C43.1661 31.0387 44.9989 36.0471 45.4628 39.0991H41.1564C40.314 39.0991 39.6304 39.7827 39.6304 40.6251C39.6304 41.4674 40.314 42.1511 41.1564 42.1511H47.1032C47.9456 42.1511 48.6292 41.6559 48.6292 40.8128C48.6292 36.4492 45.9541 28.7421 41.7622 26.3028Z" fill="#00ADEF"/>
<path d="M10.3631 28.9764C10.6591 28.1875 10.2593 27.3024 9.47038 27.0064C9.37348 26.9698 9.30863 26.9095 9.13619 26.7737C8.94849 26.6279 8.69212 26.4051 8.33656 26.2197C7.87342 25.9786 7.31872 25.9458 6.86626 26.209C2.67509 28.6484 0 36.4485 0 40.8121C0 41.6545 0.68365 42.1497 1.526 42.1497H4.53223C5.37459 42.1497 6.05824 41.466 6.05824 40.6237C6.05824 39.7813 5.37459 39.0977 4.53223 39.0977H3.1657C3.61663 36.0457 5.35933 31.3089 7.64833 29.3015C7.84824 29.4342 8.09164 29.757 8.3976 29.8715C9.18807 30.169 10.0663 29.7662 10.3631 28.9764Z" fill="#00ADEF"/>
<path d="M12.6453 22.7031C12.7971 22.7222 12.9673 22.7329 13.1496 22.7329C14.4475 22.7329 16.4221 22.1835 17.807 20.1067C18.2747 19.4055 18.0847 18.4578 17.3835 17.9908C16.6831 17.5239 15.7354 17.7139 15.2677 18.4143C14.3491 19.7931 13.1214 19.6885 13.0153 19.674C12.9337 19.6603 12.8505 19.6542 12.7674 19.6542C11.5931 19.6542 9.52308 15.5378 9.52308 12.5339C9.52308 10.251 10.9781 8.39381 12.7674 8.39381C13.6097 8.39381 14.2934 7.71016 14.2934 6.8678C14.2934 6.02545 13.6097 5.3418 12.7674 5.3418C9.2957 5.3418 6.47107 8.56853 6.47107 12.5339C6.47107 16.0811 8.81196 22.5673 12.6453 22.7031Z" fill="#00ADEF"/>
<path d="M30.8046 17.9901C30.1027 18.4571 29.9135 19.4048 30.3812 20.106C31.7653 22.1844 33.7399 22.7322 35.0385 22.7322C35.2217 22.7322 35.3918 22.7215 35.5437 22.7024C39.3762 22.5666 41.7179 16.0804 41.7179 12.5324C41.7179 8.56707 38.8932 5.34033 35.4216 5.34033C34.5785 5.34033 33.8956 6.02398 33.8956 6.86634C33.8956 7.70869 34.5785 8.39234 35.4216 8.39234C37.21 8.39234 38.6659 10.2495 38.6659 12.5324C38.6659 15.5371 36.5958 19.6527 35.4216 19.6527C35.3384 19.6527 35.2545 19.6596 35.1728 19.6726C35.1606 19.6771 33.8742 19.842 32.9212 18.4128C32.4527 17.7124 31.5058 17.5209 30.8046 17.9901Z" fill="#00ADEF"/>
</svg>
