<svg width="53" height="74" viewBox="0 0 53 74" fill="none" xmlns="http://www.w3.org/2000/svg">
<path d="M38.4603 55.2957V66.7133L43.8952 68.9901V52.3036C42.1879 53.4821 40.3671 54.4845 38.4603 55.2957ZM9.10485 52.3036V68.8762L14.5397 66.5994V55.2957C12.6329 54.4845 10.812 53.4821 9.10485 52.3036ZM26.4999 57.7247C23.9335 57.7261 21.3771 57.4046 18.8899 56.7677V74L26.4999 70.8121L34.11 73.9999V56.7677C31.6228 57.4045 29.0663 57.726 26.4999 57.7247ZM26.4999 0C11.8878 0 0 11.9654 0 26.673C0 41.3807 11.8878 53.3459 26.4999 53.3459C41.112 53.3459 53 41.3805 53 26.6729C53 11.9653 41.1122 0 26.4999 0ZM26.4999 47.7097C14.9158 47.7097 5.49131 38.2237 5.49131 26.5639C5.49131 14.904 14.9158 5.41803 26.4999 5.41803C38.0841 5.41803 47.5085 14.904 47.5085 26.5639C47.5085 38.2238 38.0842 47.7097 26.4999 47.7097ZM26.4999 9.7966C17.3145 9.7966 9.84148 17.3183 9.84148 26.5639C9.84148 35.8096 17.3145 43.331 26.4999 43.331C35.6853 43.331 43.1584 35.8093 43.1584 26.5638C43.1584 17.3183 35.6855 9.7966 26.4999 9.7966ZM33.3466 36.3495L26.4999 32.7266L19.6534 36.3495L20.9609 28.6761L15.422 23.2417L23.0768 22.1221L26.4999 15.1403L29.9232 22.1221L37.578 23.2417L32.0391 28.6761L33.3466 36.3495Z" fill="#00ADEF"/>
</svg>
