<svg width="45" height="43" viewBox="0 0 45 43" fill="none" xmlns="http://www.w3.org/2000/svg">
<path d="M31.3905 27.2655L30.2517 28.3975C30.2517 28.3975 27.5452 31.0887 20.1577 23.743C12.7703 16.3975 15.4767 13.7064 15.4767 13.7064L16.1937 12.9934C17.9602 11.2371 18.1267 8.41727 16.5855 6.35869L13.4331 2.14769C11.5257 -0.400209 7.83989 -0.736783 5.65362 1.43707L1.72962 5.33879C0.645571 6.41669 -0.0808795 7.81397 0.0072205 9.36402C0.232595 13.3295 2.02677 21.8617 12.0384 31.8165C22.6552 42.373 32.617 42.7925 36.6907 42.4127C37.9792 42.2927 39.0997 41.6365 40.0027 40.7385L43.5542 37.2075C45.9515 34.8237 45.2755 30.7372 42.2082 29.07L37.432 26.4735C35.418 25.3787 32.9645 25.7002 31.3905 27.2655Z" fill="#006EB3"/>
</svg>
