<svg width="38" height="34" viewBox="0 0 38 34" fill="none" xmlns="http://www.w3.org/2000/svg">
<path d="M18.9998 9.82614C21.7068 9.82614 23.909 7.62211 23.909 4.91307C23.909 2.20403 21.7067 0 18.9998 0C16.2928 0 14.0906 2.20403 14.0906 4.91307C14.0906 7.62203 16.2928 9.82614 18.9998 9.82614ZM18.9998 2.37175C20.3998 2.37175 21.5389 3.51168 21.5389 4.91292C21.5389 6.31416 20.3999 7.45409 18.9998 7.45409C17.5996 7.45409 16.4606 6.31416 16.4606 4.91292C16.4606 3.51175 17.5997 2.37175 18.9998 2.37175Z" fill="white"/>
<path d="M11.083 21.6599H26.9169C27.5714 21.6599 28.102 21.1289 28.102 20.4739C28.102 15.451 24.0188 11.3647 19 11.3647C13.9812 11.3647 9.89795 15.451 9.89795 20.4739C9.89795 21.1289 10.4285 21.6599 11.083 21.6599ZM25.6274 19.2879H12.3725C13.6851 11.9203 24.3161 11.9277 25.6274 19.2879Z" fill="white"/>
<path d="M23.7826 26.2119L21.2123 25.838L20.0628 23.5071C19.629 22.6275 18.3715 22.6269 17.9374 23.5071L16.7879 25.838L14.2176 26.2119C13.2476 26.3529 12.8586 27.5497 13.5608 28.2348L15.4207 30.0492L14.9816 32.6112C14.8159 33.5779 15.833 34.3182 16.701 33.8614L19 32.6519L21.299 33.8614C22.1618 34.3154 23.1853 33.5846 23.0185 32.6112L22.5794 30.0492L24.4392 28.2348C25.1413 27.55 24.7532 26.3531 23.7826 26.2119ZM20.2767 30.6436C18.9032 29.9211 19.0125 29.9655 17.7237 30.6436C17.9708 29.2021 18.0489 29.3005 16.9347 28.2136C18.3816 28.0032 18.3116 28.1082 19.0002 26.7118C19.6868 28.1042 19.6168 28.003 21.0656 28.2136C19.9546 29.2973 20.0291 29.1995 20.2767 30.6436Z" fill="white"/>
<path d="M10.5799 26.2119L8.00956 25.838L6.86006 23.5071C6.42625 22.6275 5.16876 22.6269 4.73473 23.5071L3.5853 25.838L1.01496 26.2119C0.0449943 26.3529 -0.34406 27.5497 0.358197 28.2347L2.21812 30.0491L1.77904 32.6111C1.61331 33.5779 2.6304 34.3181 3.49847 33.8613L5.79747 32.6517L8.09647 33.8613C8.95919 34.3153 9.98274 33.5845 9.81589 32.6111L9.37681 30.0491L11.2367 28.2347C11.9385 27.55 11.5505 26.3531 10.5799 26.2119ZM7.07395 30.6436C5.7326 29.9379 5.86233 29.9379 4.52098 30.6436C4.76813 29.202 4.84621 29.3006 3.73203 28.2136C5.17885 28.0032 5.10887 28.1082 5.79747 26.7118C6.48406 28.1042 6.41408 28.0029 7.8629 28.2136C6.81642 29.2345 6.81085 29.1089 7.07395 30.6436Z" fill="white"/>
<path d="M36.9852 26.2119L34.4148 25.838L33.2654 23.5071C32.8316 22.6275 31.5741 22.6269 31.1401 23.5071L29.9906 25.838L27.4202 26.2119C26.4503 26.3529 26.0612 27.5497 26.7635 28.2348L28.6235 30.0492L28.1844 32.6112C28.0187 33.5779 29.0357 34.3181 29.9038 33.8614L32.2028 32.6518L34.5018 33.8614C35.3646 34.3154 36.3881 33.5846 36.2212 32.6112L35.7822 30.0492L37.642 28.2348C38.3437 27.55 37.9557 26.3531 36.9852 26.2119ZM33.4793 30.6436C32.1057 29.921 32.2218 29.962 30.9263 30.6436C31.1734 29.2021 31.2516 29.3005 30.1374 28.2136C31.6727 27.9904 31.555 28.0257 32.2028 26.7118C32.8893 28.1042 32.8193 28.0029 34.2682 28.2136C33.1572 29.2974 33.2318 29.1996 33.4793 30.6436Z" fill="white"/>
</svg>
