<svg width="152" height="47" viewBox="0 0 152 47" fill="none" xmlns="http://www.w3.org/2000/svg">
<path d="M33.011 21.2637C31.9573 23.7605 29.7262 28.9054 29.2314 29.5102L38.9897 40.643L2.36157 46.5529H54.5894L33.011 21.2637Z" fill="#00ADEF"/>
<path d="M29.398 32.1613L35.6516 39.5831L17.9903 42.5038L0.329102 45.4244L14.1419 22.7122L27.9548 0L24.5016 8.64166L21.0484 17.2833L17.5952 25.9249L14.1419 34.5665L29.398 32.1613Z" fill="#00ADEF"/>
<path d="M56.5827 46.4846L30.4689 0.0981445L16.7935 32.1907L26.4144 30.6789L32.1869 17.3471L56.5827 46.4846Z" fill="#00ADEF"/>
<path d="M62.676 22.1958L62.511 21.1233C63.4827 20.9583 64.0693 20.775 64.271 20.5733C64.491 20.3716 64.601 19.9866 64.601 19.4183V5.91589C64.601 5.34756 64.491 4.96256 64.271 4.7609C64.0693 4.55923 63.4827 4.3759 62.511 4.2109L62.676 3.1384H69.4135L69.5235 4.2109L67.8185 4.5409C67.4518 4.61423 67.2685 4.85256 67.2685 5.25589V20.7933L69.716 20.7658C71.751 20.7291 72.9426 20.665 73.291 20.5733C73.5843 20.4816 74.0976 19.07 74.831 16.3383L76.3434 16.4758C76.3618 16.7875 76.3709 17.4292 76.3709 18.4008C76.3709 19.3541 76.2701 20.6191 76.0684 22.1958H62.676ZM77.0204 22.1958L76.8279 21.0958C77.5246 20.9125 77.9462 20.7658 78.0929 20.6558C78.2579 20.5458 78.4137 20.2983 78.5604 19.9133L84.7204 2.89091H87.0029L93.3003 20.3533C93.392 20.6283 93.9328 20.8575 94.9228 21.0408L94.8128 22.1958H88.4054L88.2404 21.0958C89.5237 20.8391 90.1653 20.5366 90.1653 20.1883C90.1653 20.0416 90.1287 19.8491 90.0553 19.6108L88.8453 16.0358H81.7229L80.3204 19.9408C80.2471 20.1608 80.2104 20.3166 80.2104 20.4083C80.2104 20.4816 80.2654 20.5275 80.3754 20.5458L82.3279 21.0683L82.2179 22.1958H77.0204ZM82.2454 14.5783H88.3779L85.6829 6.85088C85.5545 6.46589 85.4904 6.20005 85.4904 6.05339H85.2154L82.2454 14.5783ZM62.4835 45.1958L62.3185 44.1233C63.3085 43.94 63.9318 43.7475 64.1885 43.5458C64.4635 43.3441 64.601 42.9683 64.601 42.4183V28.9159C64.601 28.3476 64.491 27.9626 64.271 27.7609C64.0693 27.5592 63.4827 27.3759 62.511 27.2109L62.676 26.1384H68.451L73.731 40.6033C73.8226 40.8967 73.8868 41.1258 73.9235 41.2908H74.1985C74.2168 41.0892 74.2626 40.9058 74.336 40.7408L79.6984 26.1384H84.6759L84.7859 27.2109L83.6309 27.5409C83.2826 27.6509 83.1084 27.8617 83.1084 28.1734V43.0783C83.1084 43.4816 83.2917 43.72 83.6584 43.7933L85.3634 44.1233L85.2534 45.1958H78.4609L78.2959 44.1233C79.1943 43.9583 79.7718 43.7841 80.0284 43.6008C80.3034 43.3991 80.4409 43.0783 80.4409 42.6383V30.0709C80.4409 29.6492 80.4684 29.3009 80.5234 29.0259H80.3034L74.501 44.6458H72.521L66.6635 28.9709H66.4435V42.4458C66.4435 42.8858 66.526 43.2158 66.691 43.4358C66.8743 43.6558 67.1952 43.8025 67.6535 43.8758L69.001 44.1233L68.891 45.1958H62.4835ZM87.7857 45.1958L87.6207 44.1233C88.5924 43.9583 89.1791 43.775 89.3807 43.5733C89.6007 43.3716 89.7107 42.9866 89.7107 42.4183V28.9159C89.7107 28.3476 89.6007 27.9626 89.3807 27.7609C89.1791 27.5592 88.5924 27.3759 87.6207 27.2109L87.7857 26.1384H94.5232L94.6332 27.2109L92.9282 27.5409C92.5616 27.6142 92.3782 27.8526 92.3782 28.2559V43.0783C92.3782 43.4816 92.5616 43.72 92.9282 43.7933L94.6332 44.1233L94.5232 45.1958H87.7857ZM97.0508 45.1958L96.8858 44.1233C97.8575 43.9583 98.4442 43.775 98.6458 43.5733C98.8658 43.3716 98.9758 42.9866 98.9758 42.4183V28.9159C98.9758 28.3476 98.8658 27.9626 98.6458 27.7609C98.4442 27.5592 97.8575 27.3759 96.8858 27.2109L97.0508 26.1384H99.1683H100.791H102.303L111.708 39.9983H111.901V29.4659C111.901 28.6409 111.745 28.0909 111.433 27.8159C111.14 27.5409 110.416 27.3392 109.261 27.2109L109.426 26.1384H115.888L115.998 27.2109L114.293 27.5409C113.927 27.6142 113.743 27.8526 113.743 28.2559V45.1958H112.121H112.038L101.038 28.9159H100.818V42.4458C100.818 42.9041 100.901 43.2433 101.066 43.4633C101.249 43.6833 101.57 43.8208 102.028 43.8758L103.953 44.1233L103.843 45.1958H97.0508ZM118.374 45.1958L118.209 44.1233C119.181 43.9583 119.767 43.775 119.969 43.5733C120.189 43.3716 120.299 42.9866 120.299 42.4183V28.9159C120.299 28.3476 120.189 27.9626 119.969 27.7609C119.767 27.5592 119.181 27.3759 118.209 27.2109L118.374 26.1384H126.981C128.558 26.1384 129.924 26.3951 131.079 26.9084C132.234 27.4034 133.132 28.0909 133.774 28.9709C135.021 30.6575 135.644 32.6925 135.644 35.0759C135.644 37.6975 134.947 39.98 133.554 41.9233C132.857 42.9133 131.886 43.7108 130.639 44.3158C129.411 44.9025 127.99 45.1958 126.376 45.1958H118.374ZM122.966 42.6383C122.966 43.0416 123.159 43.28 123.544 43.3533C124.827 43.61 125.799 43.7383 126.459 43.7383C128.494 43.7383 130.025 43.0141 131.051 41.5658C132.078 40.1175 132.591 38.1833 132.591 35.7634C132.591 34.2417 132.39 32.9217 131.986 31.8034C131.601 30.685 131.079 29.8326 130.419 29.2459C129.172 28.1459 127.816 27.5959 126.349 27.5959H122.966V42.6383ZM140.233 42.9408C140.545 43.1608 141.049 43.3808 141.746 43.6008C142.461 43.8025 143.258 43.9033 144.138 43.9033C145.018 43.9033 145.752 43.6375 146.338 43.1058C146.925 42.5741 147.218 41.8592 147.218 40.9608C147.218 39.5675 146.43 38.4308 144.853 37.5508C144.45 37.3492 143.827 37.0742 142.983 36.7258C142.14 36.3592 141.544 36.0934 141.196 35.9284C140.847 35.745 140.435 35.4975 139.958 35.1859C139.5 34.8559 139.143 34.5259 138.886 34.1959C138.244 33.4075 137.923 32.445 137.923 31.3084C137.923 29.6401 138.538 28.3201 139.766 27.3484C141.012 26.3767 142.626 25.8909 144.606 25.8909C146.109 25.8909 147.521 26.1384 148.841 26.6334C148.896 27.0734 148.923 27.6601 148.923 28.3934C148.923 29.1084 148.822 30.0709 148.621 31.2809L147.026 31.4734C146.824 29.4017 146.577 28.2467 146.283 28.0084C145.843 27.6234 145.037 27.4309 143.863 27.4309C142.708 27.4309 141.81 27.6692 141.168 28.1459C140.527 28.6042 140.206 29.2826 140.206 30.1809C140.206 30.6942 140.307 31.1525 140.508 31.5559C140.71 31.9592 141.077 32.335 141.608 32.6834C142.14 33.0317 142.562 33.2792 142.873 33.4259C143.332 33.6642 143.973 33.9575 144.798 34.3059C145.623 34.6542 146.265 34.9567 146.723 35.2134C147.182 35.47 147.677 35.8092 148.208 36.2308C149.235 37.0925 149.748 38.3392 149.748 39.9708C149.748 41.6025 149.162 42.9225 147.988 43.9308C146.833 44.9391 145.247 45.4433 143.231 45.4433C142.149 45.4433 141.067 45.315 139.986 45.0583C138.923 44.7833 138.143 44.5175 137.648 44.2608C137.593 44.0408 137.566 43.5183 137.566 42.6933C137.566 41.8683 137.676 40.8692 137.896 39.6958L139.463 39.6133C139.61 40.9333 139.729 41.7858 139.821 42.1708C139.931 42.5558 140.068 42.8125 140.233 42.9408Z" fill="white"/>
</svg>
