<svg width="304" height="304" viewBox="0 0 304 304" fill="none" xmlns="http://www.w3.org/2000/svg">
<g filter="url(#filter0_d_117_823)">
<rect x="4" width="296" height="296" rx="5" fill="#15232F"/>
<rect x="4.5" y="0.5" width="295" height="295" rx="4.5" stroke="#585858"/>
</g>
<path d="M85.294 160.091V211H73.0142V171.575H72.7159L61.331 178.536V167.896L73.8842 160.091H85.294ZM98.7111 211L119.244 170.332V170.009H95.231V160.091H131.971V170.084L111.364 211H98.7111ZM157.531 211.696C153.819 211.696 150.521 211.025 147.638 209.683C144.754 208.34 142.476 206.492 140.802 204.139C139.145 201.786 138.283 199.085 138.217 196.036H150.148C150.248 197.908 151.01 199.416 152.435 200.56C153.861 201.687 155.559 202.25 157.531 202.25C159.072 202.25 160.44 201.91 161.633 201.231C162.826 200.551 163.762 199.598 164.442 198.372C165.121 197.129 165.453 195.704 165.436 194.097C165.453 192.456 165.113 191.022 164.417 189.796C163.737 188.57 162.793 187.617 161.583 186.938C160.39 186.241 159.014 185.893 157.457 185.893C155.982 185.877 154.581 186.2 153.256 186.863C151.946 187.526 150.952 188.429 150.273 189.572L139.41 187.534L141.622 160.091H174.286V170.009H151.739L150.571 182.016H150.869C151.714 180.607 153.073 179.447 154.946 178.536C156.835 177.607 158.981 177.143 161.384 177.143C164.433 177.143 167.151 177.856 169.538 179.281C171.941 180.69 173.83 182.645 175.205 185.148C176.597 187.65 177.293 190.517 177.293 193.749C177.293 197.245 176.465 200.344 174.808 203.045C173.167 205.747 170.863 207.868 167.897 209.409C164.947 210.934 161.492 211.696 157.531 211.696ZM199.311 203.642V167.648H209.329V203.642H199.311ZM186.311 190.666V180.624H222.305V190.666H186.311Z" fill="#00ADEF"/>
<path d="M84.22 236.24C84.22 236.947 84.0533 237.613 83.72 238.24C83.3867 238.867 82.8533 239.38 82.12 239.78C81.3867 240.167 80.4467 240.36 79.3 240.36H76.78V246H74.5V232.1H79.3C80.3667 232.1 81.2667 232.287 82 232.66C82.7467 233.02 83.3 233.513 83.66 234.14C84.0333 234.767 84.22 235.467 84.22 236.24ZM79.3 238.5C80.1667 238.5 80.8133 238.307 81.24 237.92C81.6667 237.52 81.88 236.96 81.88 236.24C81.88 234.72 81.02 233.96 79.3 233.96H76.78V238.5H79.3ZM88.6745 236.58C89.0079 236.02 89.4479 235.587 89.9945 235.28C90.5545 234.96 91.2145 234.8 91.9745 234.8V237.16H91.3945C90.5012 237.16 89.8212 237.387 89.3545 237.84C88.9012 238.293 88.6745 239.08 88.6745 240.2V246H86.3945V234.98H88.6745V236.58ZM98.8503 246.18C97.8103 246.18 96.8703 245.947 96.0303 245.48C95.1903 245 94.5303 244.333 94.0503 243.48C93.5703 242.613 93.3303 241.613 93.3303 240.48C93.3303 239.36 93.577 238.367 94.0703 237.5C94.5636 236.633 95.237 235.967 96.0903 235.5C96.9436 235.033 97.897 234.8 98.9503 234.8C100.004 234.8 100.957 235.033 101.81 235.5C102.664 235.967 103.337 236.633 103.83 237.5C104.324 238.367 104.57 239.36 104.57 240.48C104.57 241.6 104.317 242.593 103.81 243.46C103.304 244.327 102.61 245 101.73 245.48C100.864 245.947 99.9036 246.18 98.8503 246.18ZM98.8503 244.2C99.437 244.2 99.9836 244.06 100.49 243.78C101.01 243.5 101.43 243.08 101.75 242.52C102.07 241.96 102.23 241.28 102.23 240.48C102.23 239.68 102.077 239.007 101.77 238.46C101.464 237.9 101.057 237.48 100.55 237.2C100.044 236.92 99.497 236.78 98.9103 236.78C98.3236 236.78 97.777 236.92 97.2703 237.2C96.777 237.48 96.3836 237.9 96.0903 238.46C95.797 239.007 95.6503 239.68 95.6503 240.48C95.6503 241.667 95.9503 242.587 96.5503 243.24C97.1636 243.88 97.9303 244.2 98.8503 244.2ZM107.984 233.52C107.571 233.52 107.224 233.38 106.944 233.1C106.664 232.82 106.524 232.473 106.524 232.06C106.524 231.647 106.664 231.3 106.944 231.02C107.224 230.74 107.571 230.6 107.984 230.6C108.384 230.6 108.724 230.74 109.004 231.02C109.284 231.3 109.424 231.647 109.424 232.06C109.424 232.473 109.284 232.82 109.004 233.1C108.724 233.38 108.384 233.52 107.984 233.52ZM109.104 248.16C109.104 249.24 108.831 250.02 108.284 250.5C107.751 250.993 106.971 251.24 105.944 251.24H104.764V249.32H105.544C106.011 249.32 106.338 249.227 106.524 249.04C106.724 248.867 106.824 248.573 106.824 248.16V234.98H109.104V248.16ZM122.198 240.22C122.198 240.633 122.171 241.007 122.118 241.34H113.698C113.764 242.22 114.091 242.927 114.678 243.46C115.264 243.993 115.984 244.26 116.838 244.26C118.064 244.26 118.931 243.747 119.438 242.72H121.898C121.564 243.733 120.958 244.567 120.078 245.22C119.211 245.86 118.131 246.18 116.838 246.18C115.784 246.18 114.838 245.947 113.998 245.48C113.171 245 112.518 244.333 112.038 243.48C111.571 242.613 111.338 241.613 111.338 240.48C111.338 239.347 111.564 238.353 112.018 237.5C112.484 236.633 113.131 235.967 113.958 235.5C114.798 235.033 115.758 234.8 116.838 234.8C117.878 234.8 118.804 235.027 119.618 235.48C120.431 235.933 121.064 236.573 121.518 237.4C121.971 238.213 122.198 239.153 122.198 240.22ZM119.818 239.5C119.804 238.66 119.504 237.987 118.918 237.48C118.331 236.973 117.604 236.72 116.738 236.72C115.951 236.72 115.278 236.973 114.718 237.48C114.158 237.973 113.824 238.647 113.718 239.5H119.818ZM123.681 240.48C123.681 239.347 123.908 238.353 124.361 237.5C124.828 236.633 125.468 235.967 126.281 235.5C127.095 235.033 128.028 234.8 129.081 234.8C130.415 234.8 131.515 235.12 132.381 235.76C133.261 236.387 133.855 237.287 134.161 238.46H131.701C131.501 237.913 131.181 237.487 130.741 237.18C130.301 236.873 129.748 236.72 129.081 236.72C128.148 236.72 127.401 237.053 126.841 237.72C126.295 238.373 126.021 239.293 126.021 240.48C126.021 241.667 126.295 242.593 126.841 243.26C127.401 243.927 128.148 244.26 129.081 244.26C130.401 244.26 131.275 243.68 131.701 242.52H134.161C133.841 243.64 133.241 244.533 132.361 245.2C131.481 245.853 130.388 246.18 129.081 246.18C128.028 246.18 127.095 245.947 126.281 245.48C125.468 245 124.828 244.333 124.361 243.48C123.908 242.613 123.681 241.613 123.681 240.48ZM139.094 236.84V242.94C139.094 243.353 139.187 243.653 139.374 243.84C139.574 244.013 139.907 244.1 140.374 244.1H141.774V246H139.974C138.947 246 138.16 245.76 137.614 245.28C137.067 244.8 136.794 244.02 136.794 242.94V236.84H135.494V234.98H136.794V232.24H139.094V234.98H141.774V236.84H139.094ZM153.61 232.1C155.09 232.1 156.384 232.387 157.49 232.96C158.61 233.52 159.47 234.333 160.07 235.4C160.684 236.453 160.99 237.687 160.99 239.1C160.99 240.513 160.684 241.74 160.07 242.78C159.47 243.82 158.61 244.62 157.49 245.18C156.384 245.727 155.09 246 153.61 246H149.07V232.1H153.61ZM153.61 244.14C155.237 244.14 156.484 243.7 157.35 242.82C158.217 241.94 158.65 240.7 158.65 239.1C158.65 237.487 158.217 236.227 157.35 235.32C156.484 234.413 155.237 233.96 153.61 233.96H151.35V244.14H153.61ZM173.35 240.22C173.35 240.633 173.323 241.007 173.27 241.34H164.85C164.917 242.22 165.243 242.927 165.83 243.46C166.417 243.993 167.137 244.26 167.99 244.26C169.217 244.26 170.083 243.747 170.59 242.72H173.05C172.717 243.733 172.11 244.567 171.23 245.22C170.363 245.86 169.283 246.18 167.99 246.18C166.937 246.18 165.99 245.947 165.15 245.48C164.323 245 163.67 244.333 163.19 243.48C162.723 242.613 162.49 241.613 162.49 240.48C162.49 239.347 162.717 238.353 163.17 237.5C163.637 236.633 164.283 235.967 165.11 235.5C165.95 235.033 166.91 234.8 167.99 234.8C169.03 234.8 169.957 235.027 170.77 235.48C171.583 235.933 172.217 236.573 172.67 237.4C173.123 238.213 173.35 239.153 173.35 240.22ZM170.97 239.5C170.957 238.66 170.657 237.987 170.07 237.48C169.483 236.973 168.757 236.72 167.89 236.72C167.103 236.72 166.43 236.973 165.87 237.48C165.31 237.973 164.977 238.647 164.87 239.5H170.97ZM177.874 231.2V246H175.594V231.2H177.874ZM182.027 233.52C181.614 233.52 181.267 233.38 180.987 233.1C180.707 232.82 180.567 232.473 180.567 232.06C180.567 231.647 180.707 231.3 180.987 231.02C181.267 230.74 181.614 230.6 182.027 230.6C182.427 230.6 182.767 230.74 183.047 231.02C183.327 231.3 183.467 231.647 183.467 232.06C183.467 232.473 183.327 232.82 183.047 233.1C182.767 233.38 182.427 233.52 182.027 233.52ZM183.147 234.98V246H180.867V234.98H183.147ZM190.401 243.96L193.521 234.98H195.941L191.741 246H189.021L184.841 234.98H187.281L190.401 243.96ZM207.764 240.22C207.764 240.633 207.737 241.007 207.684 241.34H199.264C199.331 242.22 199.657 242.927 200.244 243.46C200.831 243.993 201.551 244.26 202.404 244.26C203.631 244.26 204.497 243.747 205.004 242.72H207.464C207.131 243.733 206.524 244.567 205.644 245.22C204.777 245.86 203.697 246.18 202.404 246.18C201.351 246.18 200.404 245.947 199.564 245.48C198.737 245 198.084 244.333 197.604 243.48C197.137 242.613 196.904 241.613 196.904 240.48C196.904 239.347 197.131 238.353 197.584 237.5C198.051 236.633 198.697 235.967 199.524 235.5C200.364 235.033 201.324 234.8 202.404 234.8C203.444 234.8 204.371 235.027 205.184 235.48C205.997 235.933 206.631 236.573 207.084 237.4C207.537 238.213 207.764 239.153 207.764 240.22ZM205.384 239.5C205.371 238.66 205.071 237.987 204.484 237.48C203.897 236.973 203.171 236.72 202.304 236.72C201.517 236.72 200.844 236.973 200.284 237.48C199.724 237.973 199.391 238.647 199.284 239.5H205.384ZM212.288 236.58C212.621 236.02 213.061 235.587 213.608 235.28C214.168 234.96 214.828 234.8 215.588 234.8V237.16H215.008C214.114 237.16 213.434 237.387 212.968 237.84C212.514 238.293 212.288 239.08 212.288 240.2V246H210.008V234.98H212.288V236.58ZM216.924 240.44C216.924 239.333 217.15 238.353 217.604 237.5C218.07 236.647 218.697 235.987 219.484 235.52C220.284 235.04 221.17 234.8 222.144 234.8C222.864 234.8 223.57 234.96 224.264 235.28C224.97 235.587 225.53 236 225.944 236.52V231.2H228.244V246H225.944V244.34C225.57 244.873 225.05 245.313 224.384 245.66C223.73 246.007 222.977 246.18 222.124 246.18C221.164 246.18 220.284 245.94 219.484 245.46C218.697 244.967 218.07 244.287 217.604 243.42C217.15 242.54 216.924 241.547 216.924 240.44ZM225.944 240.48C225.944 239.72 225.784 239.06 225.464 238.5C225.157 237.94 224.75 237.513 224.244 237.22C223.737 236.927 223.19 236.78 222.604 236.78C222.017 236.78 221.47 236.927 220.964 237.22C220.457 237.5 220.044 237.92 219.724 238.48C219.417 239.027 219.264 239.68 219.264 240.44C219.264 241.2 219.417 241.867 219.724 242.44C220.044 243.013 220.457 243.453 220.964 243.76C221.484 244.053 222.03 244.2 222.604 244.2C223.19 244.2 223.737 244.053 224.244 243.76C224.75 243.467 225.157 243.04 225.464 242.48C225.784 241.907 225.944 241.24 225.944 240.48Z" fill="white"/>
<path fill-rule="evenodd" clip-rule="evenodd" d="M175.99 84C174.922 98.5384 171.133 109.062 164.624 115.572C163.469 116.727 162.205 117.782 160.831 118.738L160.831 124.401L153.254 131.978L148.63 123.886L136.113 111.368L128 106.732L135.577 99.1546L141.27 99.1547C142.217 97.7797 143.267 96.5168 144.418 95.366C150.927 88.8562 161.451 85.0676 175.99 84ZM170.307 89.6805L169.226 89.8444C159.532 91.3698 152.48 94.4475 147.99 98.938C145.286 101.641 143.23 105.161 141.838 109.559L141.745 109.856L150.209 118.32L150.628 118.189C154.584 116.861 157.833 114.997 160.419 112.608L161.052 112C165.542 107.51 168.62 100.457 170.145 90.7639L170.307 89.6805ZM136.997 115.892L131.639 121.25L128.067 117.678L133.425 112.32L136.997 115.892ZM142.355 121.25L133.425 130.18L129.853 126.608L138.783 117.678L142.355 121.25ZM144.141 123.036L147.713 126.608L142.355 131.966L138.783 128.394L144.141 123.036ZM157.046 99.1546C159.139 99.1546 160.835 100.851 160.835 102.943C160.835 105.036 159.139 106.732 157.046 106.732C154.954 106.732 153.258 105.036 153.258 102.943C153.258 100.851 154.954 99.1546 157.046 99.1546Z" fill="#00ADEF"/>
<defs>
<filter id="filter0_d_117_823" x="0" y="0" width="304" height="304" filterUnits="userSpaceOnUse" color-interpolation-filters="sRGB">
<feFlood flood-opacity="0" result="BackgroundImageFix"/>
<feColorMatrix in="SourceAlpha" type="matrix" values="0 0 0 0 0 0 0 0 0 0 0 0 0 0 0 0 0 0 127 0" result="hardAlpha"/>
<feOffset dy="4"/>
<feGaussianBlur stdDeviation="2"/>
<feComposite in2="hardAlpha" operator="out"/>
<feColorMatrix type="matrix" values="0 0 0 0 0 0 0 0 0 0 0 0 0 0 0 0 0 0 0.25 0"/>
<feBlend mode="normal" in2="BackgroundImageFix" result="effect1_dropShadow_117_823"/>
<feBlend mode="normal" in="SourceGraphic" in2="effect1_dropShadow_117_823" result="shape"/>
</filter>
</defs>
</svg>
