<svg width="189" height="28" viewBox="0 0 189 28" fill="none" xmlns="http://www.w3.org/2000/svg">
<path d="M13.7272 5.32628L15.4454 9.45746L15.9252 10.611L17.1706 10.7109L21.6305 11.0684L18.2325 13.9792L17.2837 14.7919L17.5736 16.0072L18.6117 20.3594L14.7934 18.0271L13.7272 17.3759L12.661 18.0271L8.84264 20.3594L9.88079 16.0072L10.1707 14.7919L9.22184 13.9792L5.82382 11.0684L10.2838 10.7109L11.5291 10.611L12.0089 9.45746L13.7272 5.32628Z" fill="#F1C644" stroke="#F1C644" stroke-width="4.09091"/>
<path d="M53.9545 5.56615L55.4787 9.42361L55.9449 10.6035L57.2091 10.7102L61.4003 11.0638L58.129 14.0135L57.2391 14.816L57.5039 15.9847L58.469 20.2435L55.0607 18.0522L53.9545 17.341L52.8483 18.0522L49.4401 20.2435L50.4052 15.9847L50.67 14.816L49.7801 14.0135L46.5088 11.0638L50.7 10.7102L51.9642 10.6035L52.4304 9.42361L53.9545 5.56615Z" fill="#F1C644" stroke="#F1C644" stroke-width="4.09091"/>
<path d="M94.1818 5.32628L95.9 9.45746L96.3798 10.611L97.6252 10.7109L102.085 11.0684L98.6871 13.9792L97.7383 14.7919L98.0282 16.0072L99.0663 20.3594L95.248 18.0271L94.1818 17.3759L93.1156 18.0271L89.2972 20.3594L90.3354 16.0072L90.6253 14.7919L89.6764 13.9792L86.2784 11.0684L90.7384 10.7109L91.9837 10.611L92.4635 9.45746L94.1818 5.32628Z" fill="#F1C644" stroke="#F1C644" stroke-width="4.09091"/>
<path d="M134.409 5.56615L135.933 9.42361L136.4 10.6035L137.664 10.7102L141.855 11.0638L138.584 14.0135L137.694 14.816L137.958 15.9847L138.924 20.2435L135.515 18.0522L134.409 17.341L133.303 18.0522L129.895 20.2435L130.86 15.9847L131.125 14.816L130.235 14.0135L126.963 11.0638L131.155 10.7102L132.419 10.6035L132.885 9.42361L134.409 5.56615Z" fill="#F1C644" stroke="#F1C644" stroke-width="4.09091"/>
<path d="M174.636 5.32628L176.355 9.45746L176.834 10.611L178.08 10.7109L182.54 11.0684L179.142 13.9792L178.193 14.7919L178.483 16.0072L179.521 20.3594L175.703 18.0271L174.636 17.3759L173.57 18.0271L169.752 20.3594L170.79 16.0072L171.08 14.7919L170.131 13.9792L166.733 11.0684L171.193 10.7109L172.438 10.611L172.918 9.45746L174.636 5.32628Z" fill="#F1C644" stroke="#F1C644" stroke-width="4.09091"/>
</svg>
