<svg width="38" height="34" viewBox="0 0 38 34" fill="none" xmlns="http://www.w3.org/2000/svg">
<path fill-rule="evenodd" clip-rule="evenodd" d="M38 0C37.1547 10.3027 34.1547 17.7607 29 22.3739C28.0858 23.192 27.0849 23.9399 25.9971 24.6176L25.9971 28.6303L19.9971 34L16.3358 28.2658L6.42422 19.3945L0 16.1092L6 10.7395L10.5075 10.7395C11.2579 9.76512 12.0887 8.87015 13 8.05459C18.1547 3.44141 26.488 0.756546 38 0ZM33.5 4.0255L32.6441 4.14166C24.9684 5.2227 19.3841 7.40372 15.8284 10.5859C13.6879 12.5016 12.0597 14.996 10.9571 18.1129L10.884 18.3233L17.586 24.3213L17.9176 24.228C21.0498 23.2869 23.6227 21.9662 25.6705 20.2735L26.1716 19.8425C29.7273 16.6604 32.1643 11.6627 33.3722 4.7933L33.5 4.0255ZM7.12407 22.6005L2.88143 26.3975L0.0530075 23.8662L4.29565 20.0692L7.12407 22.6005ZM11.3667 26.3975L4.29565 32.7258L1.46722 30.1944L8.53829 23.8662L11.3667 26.3975ZM12.7809 27.6631L15.6094 30.1944L11.3667 33.9914L8.53829 31.4601L12.7809 27.6631ZM23 10.7395C24.6569 10.7395 26 11.9415 26 13.4243C26 14.9071 24.6569 16.1092 23 16.1092C21.3431 16.1092 20 14.9071 20 13.4243C20 11.9415 21.3431 10.7395 23 10.7395Z" fill="white"/>
</svg>
