<svg width="253" height="116" viewBox="0 0 253 116" fill="none" xmlns="http://www.w3.org/2000/svg">
<path d="M62.8865 66.9899C59.1467 66.9899 55.6427 65.42 52.4588 62.8646L53.2337 59.257L53.2674 59.1234C53.9581 55.282 56.1481 48.8351 62.8865 48.8351C67.9403 48.8351 72.0508 52.9103 72.0508 57.9208C72.0339 62.9147 67.9235 66.9899 62.8865 66.9899ZM62.8865 39.6323C54.2782 39.6323 47.6071 45.1774 44.8949 54.2966C40.7508 48.1336 37.6174 40.7347 35.7812 34.5049H26.5158V58.4052C26.5158 63.1151 22.6412 66.9565 17.8906 66.9565C13.14 66.9565 9.26545 63.1151 9.26545 58.4052V34.5049H0.000105565V58.4052C-0.0335866 68.1925 8.00199 76.2261 17.8738 76.2261C27.7456 76.2261 35.7812 68.1925 35.7812 58.4052V54.3968C37.5837 58.1213 39.7905 61.8792 42.4691 65.2195L36.7919 91.6752H46.2763L50.3867 72.4848C53.9918 74.773 58.1359 76.2094 62.8865 76.2094C73.0447 76.2094 81.3161 67.9586 81.3161 57.8874C81.3161 47.8329 73.0447 39.6323 62.8865 39.6323Z" fill="#15232F"/>
<path d="M109.601 40.6684L115.582 64.5687L122.168 40.6684H130.019L119.894 75.2078H112.044L105.828 51.1572L99.6283 75.1911H91.7781L81.6536 40.6517H89.5038L96.0906 64.552L102.071 40.6517H109.601V40.6684ZM148.802 39.6329C138.61 39.6329 130.356 47.8335 130.356 57.9214C130.356 68.026 138.627 76.2099 148.802 76.2099C158.994 76.2099 167.265 68.026 167.265 57.9214C167.265 47.8168 158.994 39.6329 148.802 39.6329ZM148.802 68.6941C142.805 68.6941 137.953 63.884 137.953 57.9381C137.953 51.9923 142.822 47.1821 148.802 47.1821C154.799 47.1821 159.651 51.9923 159.651 57.9381C159.651 63.8673 154.799 68.6941 148.802 68.6941ZM189.687 48.4014C184.415 48.4014 180.153 52.6436 180.153 57.8546V75.1911H172.252V40.6684H180.153V45.9796C180.153 45.9796 183.522 40.6517 190.446 40.6517H192.871V48.4014H189.687ZM216.203 56.5853C221.813 53.4453 225.62 47.4828 225.62 40.6517H217.719C217.719 46.4139 213.002 51.0904 207.191 51.0904H206.129V24H198.228V75.1911H206.129V58.9235H207.073C207.848 58.9235 208.858 59.4246 209.313 60.0425L220.533 75.1911H230L216.203 56.5853Z" fill="#15232F"/>
<rect x="247" width="6" height="116" fill="#15232F"/>
</svg>
